solid OpenSCAD_Model
  facet normal 0 0.994522 0.104526
    outer loop
      vertex -30 2.9 1.2
      vertex -42.3 2.83663 1.80294
      vertex -30 2.83663 1.80294
    endloop
  endfacet
  facet normal 0 0.994522 0.104526
    outer loop
      vertex -42.3 2.83663 1.80294
      vertex -30 2.9 1.2
      vertex -42.3 2.9 1.2
    endloop
  endfacet
  facet normal 0 -0.743135 0.669142
    outer loop
      vertex -42.3 -2.34615 2.90458
      vertex -30 -2.15 3.12242
      vertex -42.3 -2.15 3.12242
    endloop
  endfacet
  facet normal 0 -0.743135 0.669142
    outer loop
      vertex -30 -2.15 3.12242
      vertex -42.3 -2.34615 2.90458
      vertex -30 -2.34615 2.90458
    endloop
  endfacet
  facet normal 0 0.951055 -0.309023
    outer loop
      vertex -30 2.64928 0.020463
      vertex -42.3 2.83663 0.597055
      vertex -30 2.83663 0.597055
    endloop
  endfacet
  facet normal 0 0.951055 -0.309023
    outer loop
      vertex -42.3 2.83663 0.597055
      vertex -30 2.64928 0.020463
      vertex -42.3 2.64928 0.020463
    endloop
  endfacet
  facet normal 0 0.866027 0.499998
    outer loop
      vertex -30 2.64928 2.37954
      vertex -42.3 2.34615 2.90458
      vertex -30 2.34615 2.90458
    endloop
  endfacet
  facet normal 0 0.866027 0.499998
    outer loop
      vertex -42.3 2.34615 2.90458
      vertex -30 2.64928 2.37954
      vertex -42.3 2.64928 2.37954
    endloop
  endfacet
  facet normal 0 0.951056 0.309019
    outer loop
      vertex -30 2.83663 1.80294
      vertex -42.3 2.64928 2.37954
      vertex -30 2.64928 2.37954
    endloop
  endfacet
  facet normal 0 0.951056 0.309019
    outer loop
      vertex -42.3 2.64928 2.37954
      vertex -30 2.83663 1.80294
      vertex -42.3 2.83663 1.80294
    endloop
  endfacet
  facet normal 0 0.743135 0.669142
    outer loop
      vertex -30 2.34615 2.90458
      vertex -42.3 2.15 3.12242
      vertex -30 2.15 3.12242
    endloop
  endfacet
  facet normal 0 0.743135 0.669142
    outer loop
      vertex -42.3 2.15 3.12242
      vertex -30 2.34615 2.90458
      vertex -42.3 2.34615 2.90458
    endloop
  endfacet
  facet normal 0 -0.951056 0.309019
    outer loop
      vertex -42.3 -2.83663 1.80294
      vertex -30 -2.64928 2.37954
      vertex -42.3 -2.64928 2.37954
    endloop
  endfacet
  facet normal 0 -0.951056 0.309019
    outer loop
      vertex -30 -2.64928 2.37954
      vertex -42.3 -2.83663 1.80294
      vertex -30 -2.83663 1.80294
    endloop
  endfacet
  facet normal -1 0 0
    outer loop
      vertex -42.5 -2.15 -4.7
      vertex -42.5 -1.90288 -4.69709
      vertex -42.5 -1.88897 -4.7
    endloop
  endfacet
  facet normal -1 0 0
    outer loop
      vertex -42.5 -2.15 -4.7
      vertex -42.5 -1.90541 -4.69655
      vertex -42.5 -1.90288 -4.69709
    endloop
  endfacet
  facet normal -1 -0 0
    outer loop
      vertex -42.5 -1.90541 -4.69655
      vertex -42.5 -2.15 -4.7
      vertex -42.5 -2.15 -4.58705
    endloop
  endfacet
  facet normal -1 0 0
    outer loop
      vertex -42.5 -1.90288 7.09709
      vertex -42.5 -2.15 7.1
      vertex -42.5 -1.88897 7.1
    endloop
  endfacet
  facet normal -1 0 0
    outer loop
      vertex -42.5 -1.90541 7.09655
      vertex -42.5 -2.15 7.1
      vertex -42.5 -1.90288 7.09709
    endloop
  endfacet
  facet normal -1 0 0
    outer loop
      vertex -42.5 -2.15 7.1
      vertex -42.5 -1.90541 7.09655
      vertex -42.5 -2.15 6.98705
    endloop
  endfacet
  facet normal 0 -0.866027 0.499998
    outer loop
      vertex -42.3 -2.64928 2.37954
      vertex -30 -2.34615 2.90458
      vertex -42.3 -2.34615 2.90458
    endloop
  endfacet
  facet normal 0 -0.866027 0.499998
    outer loop
      vertex -30 -2.34615 2.90458
      vertex -42.3 -2.64928 2.37954
      vertex -30 -2.64928 2.37954
    endloop
  endfacet
  facet normal 0 -0.994522 0.104526
    outer loop
      vertex -42.3 -2.9 1.2
      vertex -30 -2.83663 1.80294
      vertex -42.3 -2.83663 1.80294
    endloop
  endfacet
  facet normal 0 -0.994522 0.104526
    outer loop
      vertex -30 -2.83663 1.80294
      vertex -42.3 -2.9 1.2
      vertex -30 -2.9 1.2
    endloop
  endfacet
  facet normal 0 0.994522 -0.104525
    outer loop
      vertex -30 2.83663 0.597055
      vertex -42.3 2.9 1.2
      vertex -30 2.9 1.2
    endloop
  endfacet
  facet normal 0 0.994522 -0.104525
    outer loop
      vertex -42.3 2.9 1.2
      vertex -30 2.83663 0.597055
      vertex -42.3 2.83663 0.597055
    endloop
  endfacet
  facet normal 0 -0.994522 -0.104525
    outer loop
      vertex -42.3 -2.83663 0.597055
      vertex -30 -2.9 1.2
      vertex -42.3 -2.9 1.2
    endloop
  endfacet
  facet normal 0 -0.994522 -0.104525
    outer loop
      vertex -30 -2.9 1.2
      vertex -42.3 -2.83663 0.597055
      vertex -30 -2.83663 0.597055
    endloop
  endfacet
  facet normal 0 -0.743142 -0.669133
    outer loop
      vertex -42.3 -2.15 -0.722422
      vertex -30 -2.34615 -0.504577
      vertex -42.3 -2.34615 -0.504577
    endloop
  endfacet
  facet normal 0 -0.743142 -0.669133
    outer loop
      vertex -30 -2.34615 -0.504577
      vertex -42.3 -2.15 -0.722422
      vertex -30 -2.15 -0.722422
    endloop
  endfacet
  facet normal 0 -0.951055 -0.309023
    outer loop
      vertex -42.3 -2.64928 0.020463
      vertex -30 -2.83663 0.597055
      vertex -42.3 -2.83663 0.597055
    endloop
  endfacet
  facet normal 0 -0.951055 -0.309023
    outer loop
      vertex -30 -2.83663 0.597055
      vertex -42.3 -2.64928 0.020463
      vertex -30 -2.64928 0.020463
    endloop
  endfacet
  facet normal 0 0.743142 -0.669133
    outer loop
      vertex -30 2.15 -0.722422
      vertex -42.3 2.34615 -0.504577
      vertex -30 2.34615 -0.504577
    endloop
  endfacet
  facet normal 0 0.743142 -0.669133
    outer loop
      vertex -42.3 2.34615 -0.504577
      vertex -30 2.15 -0.722422
      vertex -42.3 2.15 -0.722422
    endloop
  endfacet
  facet normal 0 -0.866027 -0.499998
    outer loop
      vertex -42.3 -2.34615 -0.504577
      vertex -30 -2.64928 0.020463
      vertex -42.3 -2.64928 0.020463
    endloop
  endfacet
  facet normal 0 -0.866027 -0.499998
    outer loop
      vertex -30 -2.64928 0.020463
      vertex -42.3 -2.34615 -0.504577
      vertex -30 -2.34615 -0.504577
    endloop
  endfacet
  facet normal 0 0.866027 -0.499998
    outer loop
      vertex -30 2.34615 -0.504577
      vertex -42.3 2.64928 0.020463
      vertex -30 2.64928 0.020463
    endloop
  endfacet
  facet normal 0 0.866027 -0.499998
    outer loop
      vertex -42.3 2.64928 0.020463
      vertex -30 2.34615 -0.504577
      vertex -42.3 2.34615 -0.504577
    endloop
  endfacet
  facet normal 0 0 1
    outer loop
      vertex -42.3 -1.88927 7.1
      vertex -30 2.15 7.1
      vertex -42.3 2.15 7.1
    endloop
  endfacet
  facet normal 0 0 1
    outer loop
      vertex -30 2.15 7.1
      vertex -42.3 -1.88927 7.1
      vertex -30 -2.15 7.1
    endloop
  endfacet
  facet normal 0 0 1
    outer loop
      vertex -42.5 -2.15 7.1
      vertex -42.3 -1.88927 7.1
      vertex -42.4986 -1.88927 7.1
    endloop
  endfacet
  facet normal 0 0 1
    outer loop
      vertex -42.3 -1.88927 7.1
      vertex -42.5 -2.15 7.1
      vertex -30 -2.15 7.1
    endloop
  endfacet
  facet normal 0 0 1
    outer loop
      vertex -42.5 -2.15 7.1
      vertex -42.4986 -1.88927 7.1
      vertex -42.5 -1.88897 7.1
    endloop
  endfacet
  facet normal 0 1 -0
    outer loop
      vertex -30 2.15 -4.7
      vertex -42.3 2.15 -0.722422
      vertex -30 2.15 -0.722422
    endloop
  endfacet
  facet normal 0 1 0
    outer loop
      vertex -42.3 2.15 -0.722422
      vertex -30 2.15 -4.7
      vertex -42.3 2.15 -4.7
    endloop
  endfacet
  facet normal 0 1 -0
    outer loop
      vertex -30 2.15 3.12242
      vertex -42.3 2.15 7.1
      vertex -30 2.15 7.1
    endloop
  endfacet
  facet normal 0 1 0
    outer loop
      vertex -42.3 2.15 7.1
      vertex -30 2.15 3.12242
      vertex -42.3 2.15 3.12242
    endloop
  endfacet
  facet normal 0 0 -1
    outer loop
      vertex -30 -2.15 -4.7
      vertex -42.3 -1.88927 -4.7
      vertex -30 2.15 -4.7
    endloop
  endfacet
  facet normal 0 0 -1
    outer loop
      vertex -42.5 -2.15 -4.7
      vertex -42.3 -1.88927 -4.7
      vertex -30 -2.15 -4.7
    endloop
  endfacet
  facet normal -0 0 -1
    outer loop
      vertex -42.3 -1.88927 -4.7
      vertex -42.5 -2.15 -4.7
      vertex -42.4986 -1.88927 -4.7
    endloop
  endfacet
  facet normal -0 0 -1
    outer loop
      vertex -42.4986 -1.88927 -4.7
      vertex -42.5 -2.15 -4.7
      vertex -42.5 -1.88897 -4.7
    endloop
  endfacet
  facet normal -0 0 -1
    outer loop
      vertex -30 2.15 -4.7
      vertex -42.3 -1.88927 -4.7
      vertex -42.3 2.15 -4.7
    endloop
  endfacet
  facet normal 0 -1 0
    outer loop
      vertex -42.5 -2.15 -4.58705
      vertex -42.5 -2.15 -4.7
      vertex -42.3 -2.15 -4.58705
    endloop
  endfacet
  facet normal 0 -1 0
    outer loop
      vertex -42.3 -2.15 -4.58705
      vertex -30 -2.15 -0.722422
      vertex -42.3 -2.15 -0.722422
    endloop
  endfacet
  facet normal 0 -1 0
    outer loop
      vertex -30 -2.15 -4.7
      vertex -42.3 -2.15 -4.58705
      vertex -42.5 -2.15 -4.7
    endloop
  endfacet
  facet normal 0 -1 0
    outer loop
      vertex -42.3 -2.15 -4.58705
      vertex -30 -2.15 -4.7
      vertex -30 -2.15 -0.722422
    endloop
  endfacet
  facet normal 0 -1 0
    outer loop
      vertex -42.3 -2.15 6.98705
      vertex -42.5 -2.15 7.1
      vertex -42.5 -2.15 6.98705
    endloop
  endfacet
  facet normal 0 -1 0
    outer loop
      vertex -42.5 -2.15 7.1
      vertex -42.3 -2.15 6.98705
      vertex -30 -2.15 7.1
    endloop
  endfacet
  facet normal 0 -1 0
    outer loop
      vertex -42.3 -2.15 3.12242
      vertex -30 -2.15 7.1
      vertex -42.3 -2.15 6.98705
    endloop
  endfacet
  facet normal 0 -1 -0
    outer loop
      vertex -30 -2.15 7.1
      vertex -42.3 -2.15 3.12242
      vertex -30 -2.15 3.12242
    endloop
  endfacet
  facet normal 1 0 0
    outer loop
      vertex -30 -2.64928 2.37954
      vertex -30 -2.15 3.12242
      vertex -30 -2.34615 2.90458
    endloop
  endfacet
  facet normal 1 0 0
    outer loop
      vertex -30 -2.83663 1.80294
      vertex -30 -2.15 3.12242
      vertex -30 -2.64928 2.37954
    endloop
  endfacet
  facet normal 1 0 0
    outer loop
      vertex -30 -2.15 3.12242
      vertex -30 -2.83663 1.80294
      vertex -30 -2.15 -0.722422
    endloop
  endfacet
  facet normal 1 0 0
    outer loop
      vertex -30 -2.15 -0.722422
      vertex -30 -2.64928 0.020463
      vertex -30 -2.34615 -0.504577
    endloop
  endfacet
  facet normal 1 -0 0
    outer loop
      vertex -30 -2.83663 0.597055
      vertex -30 -2.15 -0.722422
      vertex -30 -2.83663 1.80294
    endloop
  endfacet
  facet normal 1 0 0
    outer loop
      vertex -30 -2.15 -0.722422
      vertex -30 -2.83663 0.597055
      vertex -30 -2.64928 0.020463
    endloop
  endfacet
  facet normal 1 0 -0
    outer loop
      vertex -30 -2.83663 0.597055
      vertex -30 -2.83663 1.80294
      vertex -30 -2.9 1.2
    endloop
  endfacet
  facet normal 1 0 0
    outer loop
      vertex -30 -2.15 3.12242
      vertex -30 2.15 3.12242
      vertex -30 2.15 7.1
    endloop
  endfacet
  facet normal 1 0 0
    outer loop
      vertex -30 2.15 3.12242
      vertex -30 -2.15 3.12242
      vertex -30 2.15 -0.722422
    endloop
  endfacet
  facet normal 1 0 0
    outer loop
      vertex -30 -2.15 3.12242
      vertex -30 2.15 7.1
      vertex -30 -2.15 7.1
    endloop
  endfacet
  facet normal 1 0 0
    outer loop
      vertex -30 -2.15 -0.722422
      vertex -30 2.15 -0.722422
      vertex -30 -2.15 3.12242
    endloop
  endfacet
  facet normal 1 0 0
    outer loop
      vertex -30 2.15 -0.722422
      vertex -30 -2.15 -0.722422
      vertex -30 2.15 -4.7
    endloop
  endfacet
  facet normal 1 0 0
    outer loop
      vertex -30 2.15 -4.7
      vertex -30 -2.15 -0.722422
      vertex -30 -2.15 -4.7
    endloop
  endfacet
  facet normal 1 0 0
    outer loop
      vertex -30 2.83663 1.80294
      vertex -30 2.83663 0.597055
      vertex -30 2.9 1.2
    endloop
  endfacet
  facet normal 1 0 0
    outer loop
      vertex -30 2.15 3.12242
      vertex -30 2.83663 1.80294
      vertex -30 2.64928 2.37954
    endloop
  endfacet
  facet normal 1 0 0
    outer loop
      vertex -30 2.83663 1.80294
      vertex -30 2.15 3.12242
      vertex -30 2.83663 0.597055
    endloop
  endfacet
  facet normal 1 0 0
    outer loop
      vertex -30 2.15 3.12242
      vertex -30 2.64928 2.37954
      vertex -30 2.34615 2.90458
    endloop
  endfacet
  facet normal 1 0 0
    outer loop
      vertex -30 2.15 -0.722422
      vertex -30 2.83663 0.597055
      vertex -30 2.15 3.12242
    endloop
  endfacet
  facet normal 1 0 0
    outer loop
      vertex -30 2.83663 0.597055
      vertex -30 2.15 -0.722422
      vertex -30 2.64928 0.020463
    endloop
  endfacet
  facet normal 1 0 0
    outer loop
      vertex -30 2.64928 0.020463
      vertex -30 2.15 -0.722422
      vertex -30 2.34615 -0.504577
    endloop
  endfacet
  facet normal -0.85249 0.153157 -0.499803
    outer loop
      vertex -42.3177 40.0306 1.16465
      vertex -45.3 16.246 -1.03699
      vertex -45.3 19.0489 -0.178087
    endloop
  endfacet
  facet normal -0.140673 0.153107 -0.978146
    outer loop
      vertex -42.7336 0.481614 -4.96604
      vertex -43.582 1.42379 -4.69655
      vertex -42.3177 40.0306 1.16465
    endloop
  endfacet
  facet normal -0.727198 0.15312 -0.669132
    outer loop
      vertex -42.3177 40.0306 1.16465
      vertex -45.3 11.1188 -2.21027
      vertex -45.3 16.246 -1.03699
    endloop
  endfacet
  facet normal -0.206793 -0.972845 0.103965
    outer loop
      vertex -44.174 -5.7677 2.48905
      vertex -44.2159 -5.89655 1.2
      vertex -42.9481 -6.16604 1.2
    endloop
  endfacet
  facet normal -0.404523 -0.908605 0.10391
    outer loop
      vertex -45.3 -5.27065 2.4518
      vertex -44.174 -5.7677 2.48905
      vertex -45.3 -5.26639 2.48905
    endloop
  endfacet
  facet normal -0.404522 -0.908599 0.10397
    outer loop
      vertex -44.174 -5.7677 2.48905
      vertex -45.3 -5.27065 2.4518
      vertex -44.2159 -5.89655 1.2
    endloop
  endfacet
  facet normal -0.346737 -0.477238 0.807476
    outer loop
      vertex -44.3743 -2.30375 6.56936
      vertex -44.3743 -3.5928 5.8075
      vertex -43.85 -2.68468 6.56936
    endloop
  endfacet
  facet normal -0.0684464 0.153646 -0.985753
    outer loop
      vertex -42.5003 0.616357 -4.96604
      vertex -42.624 0.561251 -4.96604
      vertex -42.3177 40.0306 1.16465
    endloop
  endfacet
  facet normal -0.155322 0.13985 -0.977915
    outer loop
      vertex -42.7336 0.481614 -4.96604
      vertex -43.85 1.12614 -4.69655
      vertex -43.582 1.42379 -4.69655
    endloop
  endfacet
  facet normal -0.406364 0.0426611 0.912715
    outer loop
      vertex -45.3 0.625902 6.58459
      vertex -44.174 0.398338 7.09655
      vertex -45.3 0.637669 6.58404
    endloop
  endfacet
  facet normal -0.406348 0.0427426 0.912718
    outer loop
      vertex -44.174 0.398338 7.09655
      vertex -45.3 0.625902 6.58459
      vertex -44.2159 0 7.09655
    endloop
  endfacet
  facet normal -0.353862 -0.204278 -0.912717
    outer loop
      vertex -44.808 -1.82213 -4.16936
      vertex -45.132 -1.26088 -4.16936
      vertex -43.85 -1.12614 -4.69655
    endloop
  endfacet
  facet normal -0.0849727 -0.399661 -0.912716
    outer loop
      vertex -42.5003 -1.90541 -4.69655
      vertex -43.258 -2.94827 -4.16936
      vertex -42.892 -1.82213 -4.69655
    endloop
  endfacet
  facet normal -0.387043 -0.869284 -0.30748
    outer loop
      vertex -44.0503 -5.38677 -1.32177
      vertex -45.3 -5.19615 -0.287606
      vertex -45.132 -4.90515 -1.32177
    endloop
  endfacet
  facet normal -0.387041 -0.869285 -0.307477
    outer loop
      vertex -45.3 -5.19615 -0.287606
      vertex -44.0503 -5.38677 -1.32177
      vertex -45.3 -5.25541 -0.120069
    endloop
  endfacet
  facet normal -0.568098 0.152991 -0.808615
    outer loop
      vertex -42.3177 40.0306 1.16465
      vertex -45.3 1.06597 -4.11228
      vertex -45.3 11.1188 -2.21027
    endloop
  endfacet
  facet normal -0.47307 0.153702 -0.867514
    outer loop
      vertex -45.3 1.06597 -4.11228
      vertex -45.132 1.26088 -4.16936
      vertex -45.3 0.743803 -4.16936
    endloop
  endfacet
  facet normal -0.473063 0.153695 -0.867519
    outer loop
      vertex -45.132 1.26088 -4.16936
      vertex -45.3 1.06597 -4.11228
      vertex -42.3177 40.0306 1.16465
    endloop
  endfacet
  facet normal -0.170321 0.153354 -0.973382
    outer loop
      vertex -43.582 1.42379 -4.69655
      vertex -43.85 1.12614 -4.69655
      vertex -42.3177 40.0306 1.16465
    endloop
  endfacet
  facet normal -0.938742 0.153187 -0.308702
    outer loop
      vertex -42.3177 40.0306 1.16465
      vertex -45.3 19.0489 -0.178087
      vertex -45.3 20.4808 0.532462
    endloop
  endfacet
  facet normal -0.111445 0.153376 0.981863
    outer loop
      vertex -42.3177 40.0306 1.23535
      vertex -42.7336 0.481614 7.36604
      vertex -42.624 0.561251 7.36604
    endloop
  endfacet
  facet normal -0.170321 0.153354 0.973382
    outer loop
      vertex -42.3177 40.0306 1.23535
      vertex -43.85 1.12614 7.09655
      vertex -43.582 1.42379 7.09655
    endloop
  endfacet
  facet normal -0.0326647 0.153763 0.987568
    outer loop
      vertex -42.3177 40.0306 1.23535
      vertex -42.5003 0.616357 7.36604
      vertex -42.3677 0.644526 7.36604
    endloop
  endfacet
  facet normal -0.388613 0.126195 0.912718
    outer loop
      vertex -45.3 0.647916 6.58262
      vertex -44.174 0.398338 7.09655
      vertex -44.0503 0.779268 7.09655
    endloop
  endfacet
  facet normal -0.388545 0.12648 0.912708
    outer loop
      vertex -44.174 0.398338 7.09655
      vertex -45.3 0.647916 6.58262
      vertex -45.3 0.637669 6.58404
    endloop
  endfacet
  facet normal -0.122639 -0.577012 -0.807476
    outer loop
      vertex -42.7336 -4.12588 -3.4075
      vertex -43.582 -3.94556 -3.4075
      vertex -43.258 -2.94827 -4.16936
    endloop
  endfacet
  facet normal 0.499299 0.86643 -0
    outer loop
      vertex -42.3 40.0204 1.16465
      vertex -42.3177 40.0306 1.23535
      vertex -42.3 40.0204 1.23535
    endloop
  endfacet
  facet normal 0.499299 0.86643 0
    outer loop
      vertex -42.3177 40.0306 1.23535
      vertex -42.3 40.0204 1.16465
      vertex -42.3177 40.0306 1.16465
    endloop
  endfacet
  facet normal 0.0885358 0.153636 -0.984153
    outer loop
      vertex -42.3 37.9888 0.847498
      vertex -42.3177 40.0306 1.16465
      vertex -42.3 40.0204 1.16465
    endloop
  endfacet
  facet normal -0.982657 0.153278 -0.104361
    outer loop
      vertex -42.3177 40.0306 1.16465
      vertex -45.3 20.4808 0.532462
      vertex -45.3 20.9231 1.18208
    endloop
  endfacet
  facet normal -0.000237585 0.153804 0.988101
    outer loop
      vertex -42.3677 0.644526 7.36604
      vertex -42.3 31.8798 2.50408
      vertex -42.3177 40.0306 1.23535
    endloop
  endfacet
  facet normal 0 0.153804 0.988101
    outer loop
      vertex -42.3 31.8798 2.50408
      vertex -42.3677 0.644526 7.36604
      vertex -42.3 0.644526 7.36604
    endloop
  endfacet
  facet normal -0.388613 0.126261 0.912709
    outer loop
      vertex -45.3 0.743803 6.56936
      vertex -44.0503 0.779268 7.09655
      vertex -45.132 1.26088 6.56936
    endloop
  endfacet
  facet normal -0.388614 0.126217 0.912715
    outer loop
      vertex -44.0503 0.779268 7.09655
      vertex -45.3 0.743803 6.56936
      vertex -45.3 0.647916 6.58262
    endloop
  endfacet
  facet normal -0.180999 0.104517 0.977914
    outer loop
      vertex -43.85 1.12614 7.09655
      vertex -44.0503 0.779268 7.09655
      vertex -42.8243 0.380929 7.36604
    endloop
  endfacet
  facet normal -0.377053 0.153046 -0.913459
    outer loop
      vertex -44.0503 0.779268 -4.69655
      vertex -45.132 1.26088 -4.16936
      vertex -42.3177 40.0306 1.16465
    endloop
  endfacet
  facet normal -0.266419 0.153843 -0.951501
    outer loop
      vertex -43.85 1.12614 -4.69655
      vertex -44.0503 0.779268 -4.69655
      vertex -42.3177 40.0306 1.16465
    endloop
  endfacet
  facet normal -0.559343 -0.769801 -0.307477
    outer loop
      vertex -45.132 -4.90515 -1.32177
      vertex -45.3 -5.19615 -0.287606
      vertex -45.3 -4.78308 -1.32177
    endloop
  endfacet
  facet normal -0.0349512 -0.204644 -0.978212
    outer loop
      vertex -42.5 -1.90288 -4.69709
      vertex -42.5003 -1.90541 -4.69655
      vertex -42.5 -1.88897 -4.7
    endloop
  endfacet
  facet normal -0.0438005 -0.204402 -0.977907
    outer loop
      vertex -42.5 -1.88897 -4.7
      vertex -42.3677 -0.644526 -4.96604
      vertex -42.4986 -1.88927 -4.7
    endloop
  endfacet
  facet normal -0.0434311 -0.204443 -0.977914
    outer loop
      vertex -42.5 -1.88897 -4.7
      vertex -42.5003 -0.616357 -4.96604
      vertex -42.3677 -0.644526 -4.96604
    endloop
  endfacet
  facet normal -0.0425286 -0.204451 -0.977952
    outer loop
      vertex -42.5003 -0.616357 -4.96604
      vertex -42.5 -1.88897 -4.7
      vertex -42.5003 -1.90541 -4.69655
    endloop
  endfacet
  facet normal -0.510911 -0.29494 0.807453
    outer loop
      vertex -45.3 -1.63824 6.32522
      vertex -44.808 -1.82213 6.56936
      vertex -45.132 -1.26088 6.56936
    endloop
  endfacet
  facet normal -0.51091 -0.294934 0.807456
    outer loop
      vertex -44.808 -1.82213 6.56936
      vertex -45.3 -1.63824 6.32522
      vertex -45.3 -2.17963 6.12747
    endloop
  endfacet
  facet normal -0.553689 -0.498458 0.667059
    outer loop
      vertex -45.3 -2.8342 5.8075
      vertex -45.3 -3.33184 5.43564
      vertex -45.076 -3.08302 5.8075
    endloop
  endfacet
  facet normal -0.352711 -0.792237 0.497952
    outer loop
      vertex -43.85 -4.77041 4.84427
      vertex -44.808 -4.3439 4.84427
      vertex -44.0503 -5.38677 3.72177
    endloop
  endfacet
  facet normal 0 -0.951553 0.307484
    outer loop
      vertex -42.3 -6.03129 2.48905
      vertex -42.892 -5.63295 3.72177
      vertex -42.9339 -6.03129 2.48905
    endloop
  endfacet
  facet normal 0 -0.951553 0.307484
    outer loop
      vertex -42.892 -5.63295 3.72177
      vertex -42.3 -6.03129 2.48905
      vertex -42.3 -5.63295 3.72177
    endloop
  endfacet
  facet normal -0.377053 0.153046 0.913459
    outer loop
      vertex -42.3177 40.0306 1.23535
      vertex -45.132 1.26088 6.56936
      vertex -44.0503 0.779268 7.09655
    endloop
  endfacet
  facet normal -0.852489 0.153157 0.499805
    outer loop
      vertex -45.3 19.0489 2.57809
      vertex -45.3 16.246 3.43699
      vertex -42.3177 40.0306 1.23535
    endloop
  endfacet
  facet normal 0.0885352 0.153635 0.984153
    outer loop
      vertex -42.3 40.0204 1.23535
      vertex -42.3177 40.0306 1.23535
      vertex -42.3 37.9888 1.5525
    endloop
  endfacet
  facet normal -0.198792 0.064554 -0.977913
    outer loop
      vertex -42.9339 0.134742 -4.96604
      vertex -44.174 0.398338 -4.69655
      vertex -44.0503 0.779268 -4.69655
    endloop
  endfacet
  facet normal -0.180999 0.104517 -0.977914
    outer loop
      vertex -42.8243 0.380929 -4.96604
      vertex -44.0503 0.779268 -4.69655
      vertex -43.85 1.12614 -4.69655
    endloop
  endfacet
  facet normal -0.509767 -0.701573 -0.497928
    outer loop
      vertex -44.808 -4.3439 -2.44427
      vertex -45.3 -4.5278 -1.68146
      vertex -45.3 -3.98641 -2.44427
    endloop
  endfacet
  facet normal -0.509764 -0.701576 -0.497927
    outer loop
      vertex -45.3 -4.5278 -1.68146
      vertex -44.808 -4.3439 -2.44427
      vertex -45.132 -4.90515 -1.32177
    endloop
  endfacet
  facet normal -0.437901 -0.602667 -0.66711
    outer loop
      vertex -45.3 -3.98641 -2.44427
      vertex -44.3743 -3.5928 -3.4075
      vertex -44.808 -4.3439 -2.44427
    endloop
  endfacet
  facet normal -0.437882 -0.60269 -0.667101
    outer loop
      vertex -44.3743 -3.5928 -3.4075
      vertex -45.3 -3.98641 -2.44427
      vertex -45.3 -3.6901 -2.71197
    endloop
  endfacet
  facet normal -0.404531 -0.908596 -0.10396
    outer loop
      vertex -44.2159 -5.89655 1.2
      vertex -45.3 -5.41388 1.2
      vertex -45.3 -5.27065 -0.0518048
    endloop
  endfacet
  facet normal -0.122639 -0.577012 0.807476
    outer loop
      vertex -43.258 -2.94827 6.56936
      vertex -43.582 -3.94556 5.8075
      vertex -42.7336 -4.12588 5.8075
    endloop
  endfacet
  facet normal -0.406364 -0.0427117 0.912713
    outer loop
      vertex -45.3 0 6.61388
      vertex -45.3 -0.625902 6.58459
      vertex -44.2159 0 7.09655
    endloop
  endfacet
  facet normal -0.140673 0.153107 0.978146
    outer loop
      vertex -42.3177 40.0306 1.23535
      vertex -43.582 1.42379 7.09655
      vertex -42.7336 0.481614 7.36604
    endloop
  endfacet
  facet normal -0.386991 -0.869227 -0.307706
    outer loop
      vertex -45.3 -5.25541 -0.120069
      vertex -44.174 -5.7677 -0.089052
      vertex -45.3 -5.26639 -0.089052
    endloop
  endfacet
  facet normal -0.387029 -0.869295 -0.307464
    outer loop
      vertex -44.174 -5.7677 -0.089052
      vertex -45.3 -5.25541 -0.120069
      vertex -44.0503 -5.38677 -1.32177
    endloop
  endfacet
  facet normal -0.197838 -0.930758 0.307489
    outer loop
      vertex -42.892 -5.63295 3.72177
      vertex -44.174 -5.7677 2.48905
      vertex -42.9339 -6.03129 2.48905
    endloop
  endfacet
  facet normal -0.386995 -0.869235 0.307679
    outer loop
      vertex -44.174 -5.7677 2.48905
      vertex -45.3 -5.25541 2.52007
      vertex -45.3 -5.26639 2.48905
    endloop
  endfacet
  facet normal -0.387028 -0.869296 0.307463
    outer loop
      vertex -45.3 -5.25541 2.52007
      vertex -44.174 -5.7677 2.48905
      vertex -44.0503 -5.38677 3.72177
    endloop
  endfacet
  facet normal -0.266419 0.153843 0.951501
    outer loop
      vertex -42.3177 40.0306 1.23535
      vertex -44.0503 0.779268 7.09655
      vertex -43.85 1.12614 7.09655
    endloop
  endfacet
  facet normal -0.727198 0.15312 0.669132
    outer loop
      vertex -45.3 16.246 3.43699
      vertex -45.3 11.1188 4.61027
      vertex -42.3177 40.0306 1.23535
    endloop
  endfacet
  facet normal -0.938742 0.153187 0.308702
    outer loop
      vertex -45.3 20.4808 1.86754
      vertex -45.3 19.0489 2.57809
      vertex -42.3177 40.0306 1.23535
    endloop
  endfacet
  facet normal -0.406348 -0.0427426 0.912718
    outer loop
      vertex -45.3 -0.625902 6.58459
      vertex -44.174 -0.398338 7.09655
      vertex -44.2159 0 7.09655
    endloop
  endfacet
  facet normal -0.406364 -0.0426611 0.912715
    outer loop
      vertex -44.174 -0.398338 7.09655
      vertex -45.3 -0.625902 6.58459
      vertex -45.3 -0.637669 6.58404
    endloop
  endfacet
  facet normal -0.982657 0.153278 0.104361
    outer loop
      vertex -45.3 20.9231 1.21792
      vertex -45.3 20.4808 1.86754
      vertex -42.3177 40.0306 1.23535
    endloop
  endfacet
  facet normal -0.988038 0.154213 0
    outer loop
      vertex -45.3 20.9231 1.18208
      vertex -42.3177 40.0306 1.23535
      vertex -42.3177 40.0306 1.16465
    endloop
  endfacet
  facet normal -0.988038 0.154213 0
    outer loop
      vertex -42.3177 40.0306 1.23535
      vertex -45.3 20.9231 1.18208
      vertex -45.3 20.9231 1.21792
    endloop
  endfacet
  facet normal -0.155295 0.139895 0.977912
    outer loop
      vertex -42.7336 0.481614 7.36604
      vertex -43.85 1.12614 7.09655
      vertex -42.8243 0.380929 7.36604
    endloop
  endfacet
  facet normal -0.155322 0.13985 0.977915
    outer loop
      vertex -43.582 1.42379 7.09655
      vertex -43.85 1.12614 7.09655
      vertex -42.7336 0.481614 7.36604
    endloop
  endfacet
  facet normal -0.155295 0.139895 -0.977912
    outer loop
      vertex -42.8243 0.380929 -4.96604
      vertex -43.85 1.12614 -4.69655
      vertex -42.7336 0.481614 -4.96604
    endloop
  endfacet
  facet normal -0.352738 -0.792236 -0.497933
    outer loop
      vertex -44.0503 -5.38677 -1.32177
      vertex -45.132 -4.90515 -1.32177
      vertex -44.808 -4.3439 -2.44427
    endloop
  endfacet
  facet normal -0.154877 -0.728693 -0.667098
    outer loop
      vertex -42.7336 -4.12588 -3.4075
      vertex -43.85 -4.77041 -2.44427
      vertex -43.582 -3.94556 -3.4075
    endloop
  endfacet
  facet normal -0.388614 0.126217 -0.912715
    outer loop
      vertex -45.3 0.743803 -4.16936
      vertex -44.0503 0.779268 -4.69655
      vertex -45.3 0.647916 -4.18262
    endloop
  endfacet
  facet normal -0.388613 0.126261 -0.912709
    outer loop
      vertex -44.0503 0.779268 -4.69655
      vertex -45.3 0.743803 -4.16936
      vertex -45.132 1.26088 -4.16936
    endloop
  endfacet
  facet normal -0.388545 0.12648 -0.912708
    outer loop
      vertex -45.3 0.647916 -4.18262
      vertex -44.174 0.398338 -4.69655
      vertex -45.3 0.637669 -4.18404
    endloop
  endfacet
  facet normal -0.388613 0.126195 -0.912718
    outer loop
      vertex -44.174 0.398338 -4.69655
      vertex -45.3 0.647916 -4.18262
      vertex -44.0503 0.779268 -4.69655
    endloop
  endfacet
  facet normal -0.197838 -0.930758 -0.307489
    outer loop
      vertex -42.9339 -6.03129 -0.089052
      vertex -44.174 -5.7677 -0.089052
      vertex -42.892 -5.63295 -1.32177
    endloop
  endfacet
  facet normal -0.387043 -0.869283 0.307481
    outer loop
      vertex -45.3 -5.19615 2.68761
      vertex -44.0503 -5.38677 3.72177
      vertex -45.132 -4.90515 3.72177
    endloop
  endfacet
  facet normal -0.387037 -0.869289 0.307473
    outer loop
      vertex -44.0503 -5.38677 3.72177
      vertex -45.3 -5.19615 2.68761
      vertex -45.3 -5.25541 2.52007
    endloop
  endfacet
  facet normal -0.437891 -0.602673 0.667111
    outer loop
      vertex -45.3 -3.6901 5.11197
      vertex -44.808 -4.3439 4.84427
      vertex -44.3743 -3.5928 5.8075
    endloop
  endfacet
  facet normal -0.437911 -0.60268 0.667091
    outer loop
      vertex -44.808 -4.3439 4.84427
      vertex -45.3 -3.6901 5.11197
      vertex -45.3 -3.98641 4.84427
    endloop
  endfacet
  facet normal -0.406364 0.0427117 0.912713
    outer loop
      vertex -45.3 0.625902 6.58459
      vertex -45.3 0 6.61388
      vertex -44.2159 0 7.09655
    endloop
  endfacet
  facet normal -0.155322 -0.13985 0.977915
    outer loop
      vertex -42.7336 -0.481614 7.36604
      vertex -43.85 -1.12614 7.09655
      vertex -43.582 -1.42379 7.09655
    endloop
  endfacet
  facet normal -0.388545 -0.12648 0.912708
    outer loop
      vertex -45.3 -0.647916 6.58262
      vertex -44.174 -0.398338 7.09655
      vertex -45.3 -0.637669 6.58404
    endloop
  endfacet
  facet normal -0.388613 -0.126195 0.912718
    outer loop
      vertex -44.174 -0.398338 7.09655
      vertex -45.3 -0.647916 6.58262
      vertex -44.0503 -0.779268 7.09655
    endloop
  endfacet
  facet normal -0.561055 -0.182272 0.807462
    outer loop
      vertex -45.3 -1.20629 6.46495
      vertex -45.3 -1.33569 6.43574
      vertex -45.132 -1.26088 6.56936
    endloop
  endfacet
  facet normal -0.404531 -0.908596 0.103961
    outer loop
      vertex -45.3 -5.27065 2.4518
      vertex -45.3 -5.41388 1.2
      vertex -44.2159 -5.89655 1.2
    endloop
  endfacet
  facet normal -0.346713 -0.477242 0.807483
    outer loop
      vertex -44.3743 -2.30375 6.56936
      vertex -45.076 -3.08302 5.8075
      vertex -44.3743 -3.5928 5.8075
    endloop
  endfacet
  facet normal -0.084992 -0.190946 0.977914
    outer loop
      vertex -42.624 -0.561251 7.36604
      vertex -43.258 -1.65922 7.09655
      vertex -42.892 -1.82213 7.09655
    endloop
  endfacet
  facet normal 0 -0.994581 -0.103968
    outer loop
      vertex -42.9339 -6.03129 -0.089052
      vertex -42.3 -6.16604 1.2
      vertex -42.9481 -6.16604 1.2
    endloop
  endfacet
  facet normal 0 -0.994581 -0.103968
    outer loop
      vertex -42.3 -6.16604 1.2
      vertex -42.9339 -6.03129 -0.089052
      vertex -42.3 -6.03129 -0.089052
    endloop
  endfacet
  facet normal -0.206793 -0.972845 -0.103965
    outer loop
      vertex -42.9481 -6.16604 1.2
      vertex -44.2159 -5.89655 1.2
      vertex -44.174 -5.7677 -0.089052
    endloop
  endfacet
  facet normal -0.568098 0.152991 0.808615
    outer loop
      vertex -45.3 11.1188 4.61027
      vertex -45.3 1.06597 6.51228
      vertex -42.3177 40.0306 1.23535
    endloop
  endfacet
  facet normal -0.473063 0.153695 0.867519
    outer loop
      vertex -45.3 1.06597 6.51228
      vertex -45.132 1.26088 6.56936
      vertex -42.3177 40.0306 1.23535
    endloop
  endfacet
  facet normal -0.47307 0.153702 0.867514
    outer loop
      vertex -45.132 1.26088 6.56936
      vertex -45.3 1.06597 6.51228
      vertex -45.3 0.743803 6.56936
    endloop
  endfacet
  facet normal -0.207857 0.0219054 0.977914
    outer loop
      vertex -42.9339 0.134742 7.36604
      vertex -44.174 0.398338 7.09655
      vertex -42.9481 0 7.36604
    endloop
  endfacet
  facet normal 0 0 1
    outer loop
      vertex -42.5003 0.616357 7.36604
      vertex -42.3 0.644526 7.36604
      vertex -42.3677 0.644526 7.36604
    endloop
  endfacet
  facet normal 0 0 1
    outer loop
      vertex -42.624 0.561251 7.36604
      vertex -42.3 0.644526 7.36604
      vertex -42.5003 0.616357 7.36604
    endloop
  endfacet
  facet normal 0 0 1
    outer loop
      vertex -42.3 0.644526 7.36604
      vertex -42.624 0.561251 7.36604
      vertex -42.3 -0.644526 7.36604
    endloop
  endfacet
  facet normal 0 0 1
    outer loop
      vertex -42.3 -0.644526 7.36604
      vertex -42.5003 -0.616357 7.36604
      vertex -42.3677 -0.644526 7.36604
    endloop
  endfacet
  facet normal -0 0 1
    outer loop
      vertex -42.624 -0.561251 7.36604
      vertex -42.3 -0.644526 7.36604
      vertex -42.624 0.561251 7.36604
    endloop
  endfacet
  facet normal 0 0 1
    outer loop
      vertex -42.3 -0.644526 7.36604
      vertex -42.624 -0.561251 7.36604
      vertex -42.5003 -0.616357 7.36604
    endloop
  endfacet
  facet normal -0 0 1
    outer loop
      vertex -42.7336 0.481614 7.36604
      vertex -42.624 -0.561251 7.36604
      vertex -42.624 0.561251 7.36604
    endloop
  endfacet
  facet normal 0 0 1
    outer loop
      vertex -42.7336 0.481614 7.36604
      vertex -42.7336 -0.481614 7.36604
      vertex -42.624 -0.561251 7.36604
    endloop
  endfacet
  facet normal -0 0 1
    outer loop
      vertex -42.8243 0.380929 7.36604
      vertex -42.7336 -0.481614 7.36604
      vertex -42.7336 0.481614 7.36604
    endloop
  endfacet
  facet normal 0 0 1
    outer loop
      vertex -42.8243 0.380929 7.36604
      vertex -42.8243 -0.380929 7.36604
      vertex -42.7336 -0.481614 7.36604
    endloop
  endfacet
  facet normal -0 0 1
    outer loop
      vertex -42.892 0.263596 7.36604
      vertex -42.8243 -0.380929 7.36604
      vertex -42.8243 0.380929 7.36604
    endloop
  endfacet
  facet normal 0 0 1
    outer loop
      vertex -42.892 0.263596 7.36604
      vertex -42.892 -0.263596 7.36604
      vertex -42.8243 -0.380929 7.36604
    endloop
  endfacet
  facet normal -0 0 1
    outer loop
      vertex -42.9339 0.134742 7.36604
      vertex -42.892 -0.263596 7.36604
      vertex -42.892 0.263596 7.36604
    endloop
  endfacet
  facet normal 0 0 1
    outer loop
      vertex -42.9339 0.134742 7.36604
      vertex -42.9339 -0.134742 7.36604
      vertex -42.892 -0.263596 7.36604
    endloop
  endfacet
  facet normal 0 -0 1
    outer loop
      vertex -42.9339 -0.134742 7.36604
      vertex -42.9339 0.134742 7.36604
      vertex -42.9481 0 7.36604
    endloop
  endfacet
  facet normal 0 -0.408599 -0.912714
    outer loop
      vertex -42.3 -3.08302 -4.16936
      vertex -42.5 -2.15 -4.58705
      vertex -42.3 -2.15 -4.58705
    endloop
  endfacet
  facet normal 0 -0.408609 -0.91271
    outer loop
      vertex -42.5 -2.15 -4.58705
      vertex -42.5003 -1.90541 -4.69655
      vertex -42.5 -1.90541 -4.69655
    endloop
  endfacet
  facet normal 8.62613e-05 -0.408609 -0.91271
    outer loop
      vertex -42.5 -2.15 -4.58705
      vertex -42.624 -3.08302 -4.16936
      vertex -42.5003 -1.90541 -4.69655
    endloop
  endfacet
  facet normal 0 -0.408599 -0.912714
    outer loop
      vertex -42.624 -3.08302 -4.16936
      vertex -42.5 -2.15 -4.58705
      vertex -42.3 -3.08302 -4.16936
    endloop
  endfacet
  facet normal -0.510877 -0.294963 -0.807466
    outer loop
      vertex -45.132 -1.26088 -4.16936
      vertex -45.3 -1.63824 -3.92522
      vertex -45.3 -1.33569 -4.03574
    endloop
  endfacet
  facet normal 0 0.153804 -0.988101
    outer loop
      vertex -42.3677 0.644526 -4.96604
      vertex -42.3 31.8798 -0.104078
      vertex -42.3 0.644526 -4.96604
    endloop
  endfacet
  facet normal -0.000167125 0.153804 -0.988101
    outer loop
      vertex -42.3 31.8798 -0.104078
      vertex -42.3677 0.644526 -4.96604
      vertex -42.3177 40.0306 1.16465
    endloop
  endfacet
  facet normal -0.406348 0.0427426 -0.912718
    outer loop
      vertex -45.3 0.625902 -4.18459
      vertex -44.174 0.398338 -4.69655
      vertex -44.2159 0 -4.69655
    endloop
  endfacet
  facet normal -0.406364 0.0426611 -0.912715
    outer loop
      vertex -44.174 0.398338 -4.69655
      vertex -45.3 0.625902 -4.18459
      vertex -45.3 0.637669 -4.18404
    endloop
  endfacet
  facet normal 0 -0.867212 -0.497938
    outer loop
      vertex -42.8243 -4.98843 -2.44427
      vertex -42.3 -5.63295 -1.32177
      vertex -42.892 -5.63295 -1.32177
    endloop
  endfacet
  facet normal 0 -0.867212 -0.497938
    outer loop
      vertex -42.3 -5.63295 -1.32177
      vertex -42.8243 -4.98843 -2.44427
      vertex -42.3 -4.98843 -2.44427
    endloop
  endfacet
  facet normal 0 -0.951553 -0.307484
    outer loop
      vertex -42.892 -5.63295 -1.32177
      vertex -42.3 -6.03129 -0.089052
      vertex -42.9339 -6.03129 -0.089052
    endloop
  endfacet
  facet normal 0 -0.951553 -0.307484
    outer loop
      vertex -42.3 -6.03129 -0.089052
      vertex -42.892 -5.63295 -1.32177
      vertex -42.3 -5.63295 -1.32177
    endloop
  endfacet
  facet normal -0.197821 -0.930767 -0.307473
    outer loop
      vertex -42.892 -5.63295 -1.32177
      vertex -44.174 -5.7677 -0.089052
      vertex -44.0503 -5.38677 -1.32177
    endloop
  endfacet
  facet normal -0.404523 -0.908605 -0.103918
    outer loop
      vertex -44.174 -5.7677 -0.089052
      vertex -45.3 -5.27065 -0.0518048
      vertex -45.3 -5.26639 -0.089052
    endloop
  endfacet
  facet normal -0.404522 -0.908599 -0.10397
    outer loop
      vertex -45.3 -5.27065 -0.0518048
      vertex -44.174 -5.7677 -0.089052
      vertex -44.2159 -5.89655 1.2
    endloop
  endfacet
  facet normal -0.352738 -0.792236 0.497933
    outer loop
      vertex -44.808 -4.3439 4.84427
      vertex -45.132 -4.90515 3.72177
      vertex -44.0503 -5.38677 3.72177
    endloop
  endfacet
  facet normal -0.302992 -0.680562 0.667107
    outer loop
      vertex -44.3743 -3.5928 5.8075
      vertex -44.808 -4.3439 4.84427
      vertex -43.85 -4.77041 4.84427
    endloop
  endfacet
  facet normal -0.206784 -0.972846 -0.103974
    outer loop
      vertex -42.9481 -6.16604 1.2
      vertex -44.174 -5.7677 -0.089052
      vertex -42.9339 -6.03129 -0.089052
    endloop
  endfacet
  facet normal 0 -0.867212 0.497938
    outer loop
      vertex -42.3 -5.63295 3.72177
      vertex -42.8243 -4.98843 4.84427
      vertex -42.892 -5.63295 3.72177
    endloop
  endfacet
  facet normal 0 -0.867212 0.497938
    outer loop
      vertex -42.8243 -4.98843 4.84427
      vertex -42.3 -5.63295 3.72177
      vertex -42.3 -4.98843 4.84427
    endloop
  endfacet
  facet normal -0.509767 -0.701573 0.497928
    outer loop
      vertex -45.3 -4.5278 4.08146
      vertex -44.808 -4.3439 4.84427
      vertex -45.3 -3.98641 4.84427
    endloop
  endfacet
  facet normal -0.509764 -0.701576 0.497927
    outer loop
      vertex -44.808 -4.3439 4.84427
      vertex -45.3 -4.5278 4.08146
      vertex -45.132 -4.90515 3.72177
    endloop
  endfacet
  facet normal -0.559343 -0.769801 0.307478
    outer loop
      vertex -45.3 -4.78308 3.72177
      vertex -45.3 -5.19615 2.68761
      vertex -45.132 -4.90515 3.72177
    endloop
  endfacet
  facet normal -0.19875 -0.0646283 0.977917
    outer loop
      vertex -42.9339 -0.134742 7.36604
      vertex -44.0503 -0.779268 7.09655
      vertex -42.892 -0.263596 7.36604
    endloop
  endfacet
  facet normal -0.20787 0.0218652 0.977912
    outer loop
      vertex -44.174 0.398338 7.09655
      vertex -44.2159 0 7.09655
      vertex -42.9481 0 7.36604
    endloop
  endfacet
  facet normal -0.388614 -0.126217 0.912715
    outer loop
      vertex -45.3 -0.743803 6.56936
      vertex -44.0503 -0.779268 7.09655
      vertex -45.3 -0.647916 6.58262
    endloop
  endfacet
  facet normal -0.388613 -0.126261 0.912709
    outer loop
      vertex -44.0503 -0.779268 7.09655
      vertex -45.3 -0.743803 6.56936
      vertex -45.132 -1.26088 6.56936
    endloop
  endfacet
  facet normal -0.561057 -0.182289 0.807456
    outer loop
      vertex -45.3 -0.743803 6.56936
      vertex -45.3 -1.20629 6.46495
      vertex -45.132 -1.26088 6.56936
    endloop
  endfacet
  facet normal -0.0849472 -0.399678 0.912711
    outer loop
      vertex -42.5003 -1.90541 7.09655
      vertex -43.258 -2.94827 6.56936
      vertex -42.624 -3.08302 6.56936
    endloop
  endfacet
  facet normal 0 -0.744967 0.667101
    outer loop
      vertex -42.3 -4.98843 4.84427
      vertex -42.7336 -4.12588 5.8075
      vertex -42.8243 -4.98843 4.84427
    endloop
  endfacet
  facet normal 0 -0.744967 0.667101
    outer loop
      vertex -42.7336 -4.12588 5.8075
      vertex -42.3 -4.98843 4.84427
      vertex -42.3 -4.12588 5.8075
    endloop
  endfacet
  facet normal -0.122638 -0.577012 0.807476
    outer loop
      vertex -42.624 -3.08302 6.56936
      vertex -43.258 -2.94827 6.56936
      vertex -42.7336 -4.12588 5.8075
    endloop
  endfacet
  facet normal -0.240176 -0.330571 0.912709
    outer loop
      vertex -43.258 -1.65922 7.09655
      vertex -44.3743 -2.30375 6.56936
      vertex -43.85 -2.68468 6.56936
    endloop
  endfacet
  facet normal 0 -0.994581 0.103968
    outer loop
      vertex -42.3 -6.16604 1.2
      vertex -42.9339 -6.03129 2.48905
      vertex -42.9481 -6.16604 1.2
    endloop
  endfacet
  facet normal 0 -0.994581 0.103968
    outer loop
      vertex -42.9339 -6.03129 2.48905
      vertex -42.3 -6.16604 1.2
      vertex -42.3 -6.03129 2.48905
    endloop
  endfacet
  facet normal -0.206784 -0.972846 0.103974
    outer loop
      vertex -42.9339 -6.03129 2.48905
      vertex -44.174 -5.7677 2.48905
      vertex -42.9481 -6.16604 1.2
    endloop
  endfacet
  facet normal -0.0684464 0.153646 0.985753
    outer loop
      vertex -42.3177 40.0306 1.23535
      vertex -42.624 0.561251 7.36604
      vertex -42.5003 0.616357 7.36604
    endloop
  endfacet
  facet normal 0.067918 0.153709 0.985779
    outer loop
      vertex -42.3 37.9888 1.5525
      vertex -42.3177 40.0306 1.23535
      vertex -42.3 36.8337 1.73261
    endloop
  endfacet
  facet normal 0.0330684 0.153791 0.98755
    outer loop
      vertex -42.3 36.8337 1.73261
      vertex -42.3177 40.0306 1.23535
      vertex -42.3 31.8798 2.50408
    endloop
  endfacet
  facet normal -0.198792 -0.064554 0.977913
    outer loop
      vertex -42.9339 -0.134742 7.36604
      vertex -44.174 -0.398338 7.09655
      vertex -44.0503 -0.779268 7.09655
    endloop
  endfacet
  facet normal -0.198792 0.064554 0.977913
    outer loop
      vertex -44.0503 0.779268 7.09655
      vertex -44.174 0.398338 7.09655
      vertex -42.9339 0.134742 7.36604
    endloop
  endfacet
  facet normal -0.388613 -0.126195 -0.912718
    outer loop
      vertex -45.3 -0.647916 -4.18262
      vertex -44.174 -0.398338 -4.69655
      vertex -44.0503 -0.779268 -4.69655
    endloop
  endfacet
  facet normal -0.388545 -0.12648 -0.912708
    outer loop
      vertex -44.174 -0.398338 -4.69655
      vertex -45.3 -0.647916 -4.18262
      vertex -45.3 -0.637669 -4.18404
    endloop
  endfacet
  facet normal -0.240176 -0.330571 -0.912709
    outer loop
      vertex -43.85 -2.68468 -4.16936
      vertex -44.3743 -2.30375 -4.16936
      vertex -43.258 -1.65922 -4.69655
    endloop
  endfacet
  facet normal -0.406364 -0.0426611 -0.912715
    outer loop
      vertex -45.3 -0.625902 -4.18459
      vertex -44.174 -0.398338 -4.69655
      vertex -45.3 -0.637669 -4.18404
    endloop
  endfacet
  facet normal -0.406348 -0.0427426 -0.912718
    outer loop
      vertex -44.174 -0.398338 -4.69655
      vertex -45.3 -0.625902 -4.18459
      vertex -44.2159 0 -4.69655
    endloop
  endfacet
  facet normal -0.509769 -0.701575 -0.497923
    outer loop
      vertex -45.132 -4.90515 -1.32177
      vertex -45.3 -4.78308 -1.32177
      vertex -45.3 -4.5278 -1.68146
    endloop
  endfacet
  facet normal -0.16615 -0.37328 -0.912719
    outer loop
      vertex -42.892 -1.82213 -4.69655
      vertex -43.258 -2.94827 -4.16936
      vertex -43.258 -1.65922 -4.69655
    endloop
  endfacet
  facet normal -0.553689 -0.498458 -0.667059
    outer loop
      vertex -45.076 -3.08302 -3.4075
      vertex -45.3 -3.33184 -3.03564
      vertex -45.3 -2.8342 -3.4075
    endloop
  endfacet
  facet normal -0.239945 -0.538895 -0.807477
    outer loop
      vertex -43.258 -2.94827 -4.16936
      vertex -44.3743 -3.5928 -3.4075
      vertex -43.85 -2.68468 -4.16936
    endloop
  endfacet
  facet normal -0.0326647 0.153763 -0.987568
    outer loop
      vertex -42.3677 0.644526 -4.96604
      vertex -42.5003 0.616357 -4.96604
      vertex -42.3177 40.0306 1.16465
    endloop
  endfacet
  facet normal 0.0328131 0.153791 -0.987558
    outer loop
      vertex -42.3 31.8798 -0.104078
      vertex -42.3177 40.0306 1.16465
      vertex -42.3 36.8337 0.667388
    endloop
  endfacet
  facet normal -0.561055 -0.182272 -0.807462
    outer loop
      vertex -45.132 -1.26088 -4.16936
      vertex -45.3 -1.33569 -4.03574
      vertex -45.3 -1.20629 -4.06495
    endloop
  endfacet
  facet normal -0.437868 -0.602716 -0.667087
    outer loop
      vertex -45.3 -3.6901 -2.71197
      vertex -45.076 -3.08302 -3.4075
      vertex -44.3743 -3.5928 -3.4075
    endloop
  endfacet
  facet normal -0.437956 -0.602667 -0.667073
    outer loop
      vertex -45.076 -3.08302 -3.4075
      vertex -45.3 -3.6901 -2.71197
      vertex -45.3 -3.33184 -3.03564
    endloop
  endfacet
  facet normal -0.406364 -0.0427117 -0.912713
    outer loop
      vertex -44.2159 0 -4.69655
      vertex -45.3 -0.625902 -4.18459
      vertex -45.3 0 -4.21388
    endloop
  endfacet
  facet normal -0.51091 -0.294934 -0.807456
    outer loop
      vertex -45.3 -1.63824 -3.92522
      vertex -44.808 -1.82213 -4.16936
      vertex -45.3 -2.17963 -3.72747
    endloop
  endfacet
  facet normal -0.510911 -0.29494 -0.807453
    outer loop
      vertex -44.808 -1.82213 -4.16936
      vertex -45.3 -1.63824 -3.92522
      vertex -45.132 -1.26088 -4.16936
    endloop
  endfacet
  facet normal 0 -0.5899 -0.807476
    outer loop
      vertex -42.3 -4.12588 -3.4075
      vertex -42.624 -3.08302 -4.16936
      vertex -42.3 -3.08302 -4.16936
    endloop
  endfacet
  facet normal 0 -0.5899 -0.807476
    outer loop
      vertex -42.624 -3.08302 -4.16936
      vertex -42.3 -4.12588 -3.4075
      vertex -42.7336 -4.12588 -3.4075
    endloop
  endfacet
  facet normal -0.352711 -0.792237 -0.497952
    outer loop
      vertex -44.0503 -5.38677 -1.32177
      vertex -44.808 -4.3439 -2.44427
      vertex -43.85 -4.77041 -2.44427
    endloop
  endfacet
  facet normal -0.302992 -0.680562 -0.667107
    outer loop
      vertex -43.85 -4.77041 -2.44427
      vertex -44.808 -4.3439 -2.44427
      vertex -44.3743 -3.5928 -3.4075
    endloop
  endfacet
  facet normal -0.438386 -0.394697 0.807485
    outer loop
      vertex -45.3 -2.40104 6.01924
      vertex -45.076 -3.08302 5.8075
      vertex -44.3743 -2.30375 6.56936
    endloop
  endfacet
  facet normal -0.438439 -0.394704 0.807453
    outer loop
      vertex -45.076 -3.08302 5.8075
      vertex -45.3 -2.40104 6.01924
      vertex -45.3 -2.8342 5.8075
    endloop
  endfacet
  facet normal -0.207857 -0.0219054 0.977914
    outer loop
      vertex -42.9481 0 7.36604
      vertex -44.174 -0.398338 7.09655
      vertex -42.9339 -0.134742 7.36604
    endloop
  endfacet
  facet normal -0.20787 -0.0218652 0.977912
    outer loop
      vertex -42.9481 0 7.36604
      vertex -44.2159 0 7.09655
      vertex -44.174 -0.398338 7.09655
    endloop
  endfacet
  facet normal -0.353853 -0.204331 0.912709
    outer loop
      vertex -44.0503 -0.779268 7.09655
      vertex -45.132 -1.26088 6.56936
      vertex -43.85 -1.12614 7.09655
    endloop
  endfacet
  facet normal -0.303655 -0.273407 0.912712
    outer loop
      vertex -43.85 -1.12614 7.09655
      vertex -44.3743 -2.30375 6.56936
      vertex -43.582 -1.42379 7.09655
    endloop
  endfacet
  facet normal -0.438377 -0.39476 0.807459
    outer loop
      vertex -45.3 -2.17963 6.12747
      vertex -44.3743 -2.30375 6.56936
      vertex -44.808 -1.82213 6.56936
    endloop
  endfacet
  facet normal -0.438381 -0.394714 0.80748
    outer loop
      vertex -44.3743 -2.30375 6.56936
      vertex -45.3 -2.17963 6.12747
      vertex -45.3 -2.40104 6.01924
    endloop
  endfacet
  facet normal 0 -0.5899 0.807476
    outer loop
      vertex -42.624 -3.08302 6.56936
      vertex -42.3 -4.12588 5.8075
      vertex -42.3 -3.08302 6.56936
    endloop
  endfacet
  facet normal 0 -0.5899 0.807476
    outer loop
      vertex -42.3 -4.12588 5.8075
      vertex -42.624 -3.08302 6.56936
      vertex -42.7336 -4.12588 5.8075
    endloop
  endfacet
  facet normal -0.437879 -0.602729 0.667068
    outer loop
      vertex -45.3 -3.33184 5.43564
      vertex -44.3743 -3.5928 5.8075
      vertex -45.076 -3.08302 5.8075
    endloop
  endfacet
  facet normal -0.437881 -0.602692 0.6671
    outer loop
      vertex -44.3743 -3.5928 5.8075
      vertex -45.3 -3.33184 5.43564
      vertex -45.3 -3.6901 5.11197
    endloop
  endfacet
  facet normal -0.24019 -0.33055 0.912713
    outer loop
      vertex -43.582 -1.42379 7.09655
      vertex -44.3743 -2.30375 6.56936
      vertex -43.258 -1.65922 7.09655
    endloop
  endfacet
  facet normal -0.181022 0.104448 0.977917
    outer loop
      vertex -42.8243 0.380929 7.36604
      vertex -44.0503 0.779268 7.09655
      vertex -42.892 0.263596 7.36604
    endloop
  endfacet
  facet normal -0.19875 0.0646283 0.977917
    outer loop
      vertex -42.892 0.263596 7.36604
      vertex -44.0503 0.779268 7.09655
      vertex -42.9339 0.134742 7.36604
    endloop
  endfacet
  facet normal -0.20787 -0.0218652 -0.977912
    outer loop
      vertex -44.174 -0.398338 -4.69655
      vertex -44.2159 0 -4.69655
      vertex -42.9481 0 -4.96604
    endloop
  endfacet
  facet normal -0.180999 -0.104517 -0.977914
    outer loop
      vertex -43.85 -1.12614 -4.69655
      vertex -44.0503 -0.779268 -4.69655
      vertex -42.8243 -0.380929 -4.96604
    endloop
  endfacet
  facet normal -0.406364 0.0427117 -0.912713
    outer loop
      vertex -44.2159 0 -4.69655
      vertex -45.3 0 -4.21388
      vertex -45.3 0.625902 -4.18459
    endloop
  endfacet
  facet normal -0.166203 -0.373277 -0.912711
    outer loop
      vertex -43.258 -2.94827 -4.16936
      vertex -43.85 -2.68468 -4.16936
      vertex -43.258 -1.65922 -4.69655
    endloop
  endfacet
  facet normal -0.438407 -0.394676 -0.807484
    outer loop
      vertex -45.3 -2.8342 -3.4075
      vertex -44.3743 -2.30375 -4.16936
      vertex -45.076 -3.08302 -3.4075
    endloop
  endfacet
  facet normal -0.43838 -0.394717 -0.807479
    outer loop
      vertex -44.3743 -2.30375 -4.16936
      vertex -45.3 -2.8342 -3.4075
      vertex -45.3 -2.40104 -3.61924
    endloop
  endfacet
  facet normal -0.30301 -0.680562 -0.667098
    outer loop
      vertex -43.85 -4.77041 -2.44427
      vertex -44.3743 -3.5928 -3.4075
      vertex -43.582 -3.94556 -3.4075
    endloop
  endfacet
  facet normal -0.239938 -0.538902 -0.807474
    outer loop
      vertex -43.582 -3.94556 -3.4075
      vertex -44.3743 -3.5928 -3.4075
      vertex -43.258 -2.94827 -4.16936
    endloop
  endfacet
  facet normal -0.198792 -0.064554 -0.977913
    outer loop
      vertex -44.0503 -0.779268 -4.69655
      vertex -44.174 -0.398338 -4.69655
      vertex -42.9339 -0.134742 -4.96604
    endloop
  endfacet
  facet normal -0.111445 0.153376 -0.981863
    outer loop
      vertex -42.624 0.561251 -4.96604
      vertex -42.7336 0.481614 -4.96604
      vertex -42.3177 40.0306 1.16465
    endloop
  endfacet
  facet normal -0.19875 0.0646283 -0.977917
    outer loop
      vertex -42.9339 0.134742 -4.96604
      vertex -44.0503 0.779268 -4.69655
      vertex -42.892 0.263596 -4.96604
    endloop
  endfacet
  facet normal -0.181022 0.104448 -0.977917
    outer loop
      vertex -42.892 0.263596 -4.96604
      vertex -44.0503 0.779268 -4.69655
      vertex -42.8243 0.380929 -4.96604
    endloop
  endfacet
  facet normal 0.0678071 0.15371 -0.985787
    outer loop
      vertex -42.3 36.8337 0.667388
      vertex -42.3177 40.0306 1.16465
      vertex -42.3 37.9888 0.847498
    endloop
  endfacet
  facet normal -0.346737 -0.477238 -0.807476
    outer loop
      vertex -43.85 -2.68468 -4.16936
      vertex -44.3743 -3.5928 -3.4075
      vertex -44.3743 -2.30375 -4.16936
    endloop
  endfacet
  facet normal -0.346713 -0.477242 -0.807483
    outer loop
      vertex -44.3743 -3.5928 -3.4075
      vertex -45.076 -3.08302 -3.4075
      vertex -44.3743 -2.30375 -4.16936
    endloop
  endfacet
  facet normal -0.180303 -0.848256 -0.497948
    outer loop
      vertex -42.8243 -4.98843 -2.44427
      vertex -44.0503 -5.38677 -1.32177
      vertex -43.85 -4.77041 -2.44427
    endloop
  endfacet
  facet normal -0.180287 -0.848268 -0.497934
    outer loop
      vertex -42.892 -5.63295 -1.32177
      vertex -44.0503 -5.38677 -1.32177
      vertex -42.8243 -4.98843 -2.44427
    endloop
  endfacet
  facet normal -0.154887 -0.728685 -0.667105
    outer loop
      vertex -42.8243 -4.98843 -2.44427
      vertex -43.85 -4.77041 -2.44427
      vertex -42.7336 -4.12588 -3.4075
    endloop
  endfacet
  facet normal 0 -0.744967 -0.667101
    outer loop
      vertex -42.7336 -4.12588 -3.4075
      vertex -42.3 -4.98843 -2.44427
      vertex -42.8243 -4.98843 -2.44427
    endloop
  endfacet
  facet normal 0 -0.744967 -0.667101
    outer loop
      vertex -42.3 -4.98843 -2.44427
      vertex -42.7336 -4.12588 -3.4075
      vertex -42.3 -4.12588 -3.4075
    endloop
  endfacet
  facet normal -0.509769 -0.701575 0.497923
    outer loop
      vertex -45.3 -4.5278 4.08146
      vertex -45.3 -4.78308 3.72177
      vertex -45.132 -4.90515 3.72177
    endloop
  endfacet
  facet normal -0.510877 -0.294963 0.807466
    outer loop
      vertex -45.3 -1.33569 6.43574
      vertex -45.3 -1.63824 6.32522
      vertex -45.132 -1.26088 6.56936
    endloop
  endfacet
  facet normal -0.30363 -0.27342 0.912716
    outer loop
      vertex -43.85 -1.12614 7.09655
      vertex -44.808 -1.82213 6.56936
      vertex -44.3743 -2.30375 6.56936
    endloop
  endfacet
  facet normal -0.353862 -0.204278 0.912717
    outer loop
      vertex -43.85 -1.12614 7.09655
      vertex -45.132 -1.26088 6.56936
      vertex -44.808 -1.82213 6.56936
    endloop
  endfacet
  facet normal -0.12286 -0.16908 0.977915
    outer loop
      vertex -42.624 -0.561251 7.36604
      vertex -43.582 -1.42379 7.09655
      vertex -43.258 -1.65922 7.09655
    endloop
  endfacet
  facet normal -0.122858 -0.169083 0.977915
    outer loop
      vertex -42.7336 -0.481614 7.36604
      vertex -43.582 -1.42379 7.09655
      vertex -42.624 -0.561251 7.36604
    endloop
  endfacet
  facet normal -0.239945 -0.538895 0.807477
    outer loop
      vertex -43.85 -2.68468 6.56936
      vertex -44.3743 -3.5928 5.8075
      vertex -43.258 -2.94827 6.56936
    endloop
  endfacet
  facet normal -0.239938 -0.538902 0.807474
    outer loop
      vertex -43.258 -2.94827 6.56936
      vertex -44.3743 -3.5928 5.8075
      vertex -43.582 -3.94556 5.8075
    endloop
  endfacet
  facet normal -0.181022 -0.104448 0.977917
    outer loop
      vertex -42.892 -0.263596 7.36604
      vertex -44.0503 -0.779268 7.09655
      vertex -42.8243 -0.380929 7.36604
    endloop
  endfacet
  facet normal -0.180999 -0.104517 0.977914
    outer loop
      vertex -42.8243 -0.380929 7.36604
      vertex -44.0503 -0.779268 7.09655
      vertex -43.85 -1.12614 7.09655
    endloop
  endfacet
  facet normal 0 -0.408609 0.91271
    outer loop
      vertex -42.5 -1.90541 7.09655
      vertex -42.5003 -1.90541 7.09655
      vertex -42.5 -2.15 6.98705
    endloop
  endfacet
  facet normal 0 -0.408599 0.912714
    outer loop
      vertex -42.5 -2.15 6.98705
      vertex -42.3 -3.08302 6.56936
      vertex -42.3 -2.15 6.98705
    endloop
  endfacet
  facet normal 0 -0.408599 0.912714
    outer loop
      vertex -42.5 -2.15 6.98705
      vertex -42.624 -3.08302 6.56936
      vertex -42.3 -3.08302 6.56936
    endloop
  endfacet
  facet normal 8.62613e-05 -0.408609 0.91271
    outer loop
      vertex -42.624 -3.08302 6.56936
      vertex -42.5 -2.15 6.98705
      vertex -42.5003 -1.90541 7.09655
    endloop
  endfacet
  facet normal 0 -0.20901 0.977913
    outer loop
      vertex -42.3677 -0.644526 7.36604
      vertex -42.3 -1.88927 7.1
      vertex -42.3 -0.644526 7.36604
    endloop
  endfacet
  facet normal 0 -0.20901 0.977913
    outer loop
      vertex -42.3 -1.88927 7.1
      vertex -42.3677 -0.644526 7.36604
      vertex -42.4986 -1.88927 7.1
    endloop
  endfacet
  facet normal 0 -0.208737 0.977972
    outer loop
      vertex -42.5 -1.90288 7.09709
      vertex -42.5003 -1.90541 7.09655
      vertex -42.5 -1.90541 7.09655
    endloop
  endfacet
  facet normal -0.180287 -0.848268 0.497934
    outer loop
      vertex -42.8243 -4.98843 4.84427
      vertex -44.0503 -5.38677 3.72177
      vertex -42.892 -5.63295 3.72177
    endloop
  endfacet
  facet normal -0.197821 -0.930767 0.307473
    outer loop
      vertex -44.0503 -5.38677 3.72177
      vertex -44.174 -5.7677 2.48905
      vertex -42.892 -5.63295 3.72177
    endloop
  endfacet
  facet normal -0.122638 -0.577012 -0.807476
    outer loop
      vertex -42.7336 -4.12588 -3.4075
      vertex -43.258 -2.94827 -4.16936
      vertex -42.624 -3.08302 -4.16936
    endloop
  endfacet
  facet normal -0.20787 0.0218652 -0.977912
    outer loop
      vertex -42.9481 0 -4.96604
      vertex -44.2159 0 -4.69655
      vertex -44.174 0.398338 -4.69655
    endloop
  endfacet
  facet normal -0.207857 0.0219054 -0.977914
    outer loop
      vertex -42.9481 0 -4.96604
      vertex -44.174 0.398338 -4.69655
      vertex -42.9339 0.134742 -4.96604
    endloop
  endfacet
  facet normal -0.438369 -0.394752 -0.807467
    outer loop
      vertex -45.3 -2.40104 -3.61924
      vertex -44.808 -1.82213 -4.16936
      vertex -44.3743 -2.30375 -4.16936
    endloop
  endfacet
  facet normal -0.43842 -0.394705 -0.807463
    outer loop
      vertex -44.808 -1.82213 -4.16936
      vertex -45.3 -2.40104 -3.61924
      vertex -45.3 -2.17963 -3.72747
    endloop
  endfacet
  facet normal -0.30363 -0.27342 -0.912716
    outer loop
      vertex -44.3743 -2.30375 -4.16936
      vertex -44.808 -1.82213 -4.16936
      vertex -43.85 -1.12614 -4.69655
    endloop
  endfacet
  facet normal -0.353853 -0.204331 -0.912709
    outer loop
      vertex -43.85 -1.12614 -4.69655
      vertex -45.132 -1.26088 -4.16936
      vertex -44.0503 -0.779268 -4.69655
    endloop
  endfacet
  facet normal -0.084992 -0.190946 -0.977914
    outer loop
      vertex -42.892 -1.82213 -4.69655
      vertex -43.258 -1.65922 -4.69655
      vertex -42.624 -0.561251 -4.96604
    endloop
  endfacet
  facet normal -0.180303 -0.848256 0.497948
    outer loop
      vertex -43.85 -4.77041 4.84427
      vertex -44.0503 -5.38677 3.72177
      vertex -42.8243 -4.98843 4.84427
    endloop
  endfacet
  facet normal -0.154887 -0.728685 0.667105
    outer loop
      vertex -42.7336 -4.12588 5.8075
      vertex -43.85 -4.77041 4.84427
      vertex -42.8243 -4.98843 4.84427
    endloop
  endfacet
  facet normal -0.16615 -0.37328 0.912719
    outer loop
      vertex -43.258 -1.65922 7.09655
      vertex -43.258 -2.94827 6.56936
      vertex -42.892 -1.82213 7.09655
    endloop
  endfacet
  facet normal -0.166203 -0.373277 0.912711
    outer loop
      vertex -43.258 -1.65922 7.09655
      vertex -43.85 -2.68468 6.56936
      vertex -43.258 -2.94827 6.56936
    endloop
  endfacet
  facet normal -0.155295 -0.139895 0.977912
    outer loop
      vertex -42.8243 -0.380929 7.36604
      vertex -43.85 -1.12614 7.09655
      vertex -42.7336 -0.481614 7.36604
    endloop
  endfacet
  facet normal -0.0849727 -0.399661 0.912716
    outer loop
      vertex -42.892 -1.82213 7.09655
      vertex -43.258 -2.94827 6.56936
      vertex -42.5003 -1.90541 7.09655
    endloop
  endfacet
  facet normal -0.0850566 -0.190932 0.977911
    outer loop
      vertex -42.624 -0.561251 7.36604
      vertex -42.892 -1.82213 7.09655
      vertex -42.5003 -0.616357 7.36604
    endloop
  endfacet
  facet normal -0.043467 -0.204443 0.977913
    outer loop
      vertex -42.5003 -0.616357 7.36604
      vertex -42.892 -1.82213 7.09655
      vertex -42.5003 -1.90541 7.09655
    endloop
  endfacet
  facet normal -0.0849472 -0.399678 -0.912711
    outer loop
      vertex -42.624 -3.08302 -4.16936
      vertex -43.258 -2.94827 -4.16936
      vertex -42.5003 -1.90541 -4.69655
    endloop
  endfacet
  facet normal 0 0 -1
    outer loop
      vertex -42.5003 -0.616357 -4.96604
      vertex -42.3 -0.644526 -4.96604
      vertex -42.3677 -0.644526 -4.96604
    endloop
  endfacet
  facet normal 0 0 -1
    outer loop
      vertex -42.624 -0.561251 -4.96604
      vertex -42.3 -0.644526 -4.96604
      vertex -42.5003 -0.616357 -4.96604
    endloop
  endfacet
  facet normal 0 0 -1
    outer loop
      vertex -42.3 -0.644526 -4.96604
      vertex -42.624 -0.561251 -4.96604
      vertex -42.3 0.644526 -4.96604
    endloop
  endfacet
  facet normal -0 0 -1
    outer loop
      vertex -42.3 0.644526 -4.96604
      vertex -42.5003 0.616357 -4.96604
      vertex -42.3677 0.644526 -4.96604
    endloop
  endfacet
  facet normal 0 0 -1
    outer loop
      vertex -42.624 0.561251 -4.96604
      vertex -42.3 0.644526 -4.96604
      vertex -42.624 -0.561251 -4.96604
    endloop
  endfacet
  facet normal 0 0 -1
    outer loop
      vertex -42.3 0.644526 -4.96604
      vertex -42.624 0.561251 -4.96604
      vertex -42.5003 0.616357 -4.96604
    endloop
  endfacet
  facet normal 0 0 -1
    outer loop
      vertex -42.7336 -0.481614 -4.96604
      vertex -42.624 0.561251 -4.96604
      vertex -42.624 -0.561251 -4.96604
    endloop
  endfacet
  facet normal 0 0 -1
    outer loop
      vertex -42.7336 -0.481614 -4.96604
      vertex -42.7336 0.481614 -4.96604
      vertex -42.624 0.561251 -4.96604
    endloop
  endfacet
  facet normal 0 0 -1
    outer loop
      vertex -42.8243 -0.380929 -4.96604
      vertex -42.7336 0.481614 -4.96604
      vertex -42.7336 -0.481614 -4.96604
    endloop
  endfacet
  facet normal 0 0 -1
    outer loop
      vertex -42.8243 -0.380929 -4.96604
      vertex -42.8243 0.380929 -4.96604
      vertex -42.7336 0.481614 -4.96604
    endloop
  endfacet
  facet normal 0 0 -1
    outer loop
      vertex -42.892 -0.263596 -4.96604
      vertex -42.8243 0.380929 -4.96604
      vertex -42.8243 -0.380929 -4.96604
    endloop
  endfacet
  facet normal 0 0 -1
    outer loop
      vertex -42.892 -0.263596 -4.96604
      vertex -42.892 0.263596 -4.96604
      vertex -42.8243 0.380929 -4.96604
    endloop
  endfacet
  facet normal 0 0 -1
    outer loop
      vertex -42.9339 -0.134742 -4.96604
      vertex -42.892 0.263596 -4.96604
      vertex -42.892 -0.263596 -4.96604
    endloop
  endfacet
  facet normal 0 0 -1
    outer loop
      vertex -42.9339 -0.134742 -4.96604
      vertex -42.9339 0.134742 -4.96604
      vertex -42.892 0.263596 -4.96604
    endloop
  endfacet
  facet normal 0 -0 -1
    outer loop
      vertex -42.9339 0.134742 -4.96604
      vertex -42.9339 -0.134742 -4.96604
      vertex -42.9481 0 -4.96604
    endloop
  endfacet
  facet normal -0.207857 -0.0219054 -0.977914
    outer loop
      vertex -42.9339 -0.134742 -4.96604
      vertex -44.174 -0.398338 -4.69655
      vertex -42.9481 0 -4.96604
    endloop
  endfacet
  facet normal -0.388613 -0.126261 -0.912709
    outer loop
      vertex -45.3 -0.743803 -4.16936
      vertex -44.0503 -0.779268 -4.69655
      vertex -45.132 -1.26088 -4.16936
    endloop
  endfacet
  facet normal -0.388614 -0.126217 -0.912715
    outer loop
      vertex -44.0503 -0.779268 -4.69655
      vertex -45.3 -0.743803 -4.16936
      vertex -45.3 -0.647916 -4.18262
    endloop
  endfacet
  facet normal -0.561057 -0.182289 -0.807456
    outer loop
      vertex -45.132 -1.26088 -4.16936
      vertex -45.3 -1.20629 -4.06495
      vertex -45.3 -0.743803 -4.16936
    endloop
  endfacet
  facet normal -0.19875 -0.0646283 -0.977917
    outer loop
      vertex -42.892 -0.263596 -4.96604
      vertex -44.0503 -0.779268 -4.69655
      vertex -42.9339 -0.134742 -4.96604
    endloop
  endfacet
  facet normal -0.24019 -0.33055 -0.912713
    outer loop
      vertex -43.258 -1.65922 -4.69655
      vertex -44.3743 -2.30375 -4.16936
      vertex -43.582 -1.42379 -4.69655
    endloop
  endfacet
  facet normal -0.303655 -0.273407 -0.912712
    outer loop
      vertex -43.582 -1.42379 -4.69655
      vertex -44.3743 -2.30375 -4.16936
      vertex -43.85 -1.12614 -4.69655
    endloop
  endfacet
  facet normal -0.30301 -0.680562 0.667098
    outer loop
      vertex -43.582 -3.94556 5.8075
      vertex -44.3743 -3.5928 5.8075
      vertex -43.85 -4.77041 4.84427
    endloop
  endfacet
  facet normal -0.154877 -0.728693 0.667098
    outer loop
      vertex -43.582 -3.94556 5.8075
      vertex -43.85 -4.77041 4.84427
      vertex -42.7336 -4.12588 5.8075
    endloop
  endfacet
  facet normal -0.0438005 -0.204402 0.977907
    outer loop
      vertex -42.3677 -0.644526 7.36604
      vertex -42.5 -1.88897 7.1
      vertex -42.4986 -1.88927 7.1
    endloop
  endfacet
  facet normal -0.0434311 -0.204443 0.977914
    outer loop
      vertex -42.5003 -0.616357 7.36604
      vertex -42.5 -1.88897 7.1
      vertex -42.3677 -0.644526 7.36604
    endloop
  endfacet
  facet normal -0.0425286 -0.204451 0.977952
    outer loop
      vertex -42.5003 -1.90541 7.09655
      vertex -42.5 -1.88897 7.1
      vertex -42.5003 -0.616357 7.36604
    endloop
  endfacet
  facet normal -0.0349512 -0.204644 0.978212
    outer loop
      vertex -42.5 -1.88897 7.1
      vertex -42.5003 -1.90541 7.09655
      vertex -42.5 -1.90288 7.09709
    endloop
  endfacet
  facet normal -0.043467 -0.204443 -0.977913
    outer loop
      vertex -42.5003 -1.90541 -4.69655
      vertex -42.892 -1.82213 -4.69655
      vertex -42.5003 -0.616357 -4.96604
    endloop
  endfacet
  facet normal -0.0850566 -0.190932 -0.977911
    outer loop
      vertex -42.5003 -0.616357 -4.96604
      vertex -42.892 -1.82213 -4.69655
      vertex -42.624 -0.561251 -4.96604
    endloop
  endfacet
  facet normal -0.12286 -0.16908 -0.977915
    outer loop
      vertex -43.258 -1.65922 -4.69655
      vertex -43.582 -1.42379 -4.69655
      vertex -42.624 -0.561251 -4.96604
    endloop
  endfacet
  facet normal -0.181022 -0.104448 -0.977917
    outer loop
      vertex -42.8243 -0.380929 -4.96604
      vertex -44.0503 -0.779268 -4.69655
      vertex -42.892 -0.263596 -4.96604
    endloop
  endfacet
  facet normal 0 -0.20901 -0.977913
    outer loop
      vertex -42.3 -1.88927 -4.7
      vertex -42.3677 -0.644526 -4.96604
      vertex -42.3 -0.644526 -4.96604
    endloop
  endfacet
  facet normal 0 -0.20901 -0.977913
    outer loop
      vertex -42.3677 -0.644526 -4.96604
      vertex -42.3 -1.88927 -4.7
      vertex -42.4986 -1.88927 -4.7
    endloop
  endfacet
  facet normal -0 -0.208737 -0.977972
    outer loop
      vertex -42.5 -1.90541 -4.69655
      vertex -42.5003 -1.90541 -4.69655
      vertex -42.5 -1.90288 -4.69709
    endloop
  endfacet
  facet normal -0.155295 -0.139895 -0.977912
    outer loop
      vertex -42.7336 -0.481614 -4.96604
      vertex -43.85 -1.12614 -4.69655
      vertex -42.8243 -0.380929 -4.96604
    endloop
  endfacet
  facet normal -0.122858 -0.169083 -0.977915
    outer loop
      vertex -42.624 -0.561251 -4.96604
      vertex -43.582 -1.42379 -4.69655
      vertex -42.7336 -0.481614 -4.96604
    endloop
  endfacet
  facet normal -0.155322 -0.13985 -0.977915
    outer loop
      vertex -43.582 -1.42379 -4.69655
      vertex -43.85 -1.12614 -4.69655
      vertex -42.7336 -0.481614 -4.96604
    endloop
  endfacet
  facet normal 1 -0 0
    outer loop
      vertex -42.3 -3.08302 6.56936
      vertex -42.3 -2.15 3.12242
      vertex -42.3 -2.15 6.98705
    endloop
  endfacet
  facet normal 1 -0 0
    outer loop
      vertex -42.3 -4.12588 5.8075
      vertex -42.3 -2.15 3.12242
      vertex -42.3 -3.08302 6.56936
    endloop
  endfacet
  facet normal 1 -0 0
    outer loop
      vertex -42.3 -4.98843 4.84427
      vertex -42.3 -2.15 3.12242
      vertex -42.3 -4.12588 5.8075
    endloop
  endfacet
  facet normal 1 -0 0
    outer loop
      vertex -42.3 -5.63295 3.72177
      vertex -42.3 -2.34615 2.90458
      vertex -42.3 -4.98843 4.84427
    endloop
  endfacet
  facet normal 1 0 0
    outer loop
      vertex -42.3 -2.15 3.12242
      vertex -42.3 -4.98843 4.84427
      vertex -42.3 -2.34615 2.90458
    endloop
  endfacet
  facet normal 1 0 0
    outer loop
      vertex -42.3 -4.98843 -2.44427
      vertex -42.3 -2.15 -0.722422
      vertex -42.3 -2.34615 -0.504577
    endloop
  endfacet
  facet normal 1 0 0
    outer loop
      vertex -42.3 -5.63295 -1.32177
      vertex -42.3 -2.34615 -0.504577
      vertex -42.3 -2.64928 0.020463
    endloop
  endfacet
  facet normal 1 0 0
    outer loop
      vertex -42.3 -5.63295 -1.32177
      vertex -42.3 -2.64928 0.020463
      vertex -42.3 -2.83663 0.597055
    endloop
  endfacet
  facet normal 1 0 0
    outer loop
      vertex -42.3 -2.15 -0.722422
      vertex -42.3 -3.08302 -4.16936
      vertex -42.3 -2.15 -4.58705
    endloop
  endfacet
  facet normal 1 0 0
    outer loop
      vertex -42.3 -6.03129 -0.089052
      vertex -42.3 -2.83663 0.597055
      vertex -42.3 -2.9 1.2
    endloop
  endfacet
  facet normal 1 0 0
    outer loop
      vertex -42.3 -2.34615 2.90458
      vertex -42.3 -5.63295 3.72177
      vertex -42.3 -2.64928 2.37954
    endloop
  endfacet
  facet normal 1 0 0
    outer loop
      vertex -42.3 -2.64928 2.37954
      vertex -42.3 -5.63295 3.72177
      vertex -42.3 -2.83663 1.80294
    endloop
  endfacet
  facet normal 1 0 0
    outer loop
      vertex -42.3 -2.15 -0.722422
      vertex -42.3 -4.12588 -3.4075
      vertex -42.3 -3.08302 -4.16936
    endloop
  endfacet
  facet normal 1 -0 0
    outer loop
      vertex -42.3 -6.03129 2.48905
      vertex -42.3 -2.83663 1.80294
      vertex -42.3 -5.63295 3.72177
    endloop
  endfacet
  facet normal 1 0 0
    outer loop
      vertex -42.3 -2.15 -0.722422
      vertex -42.3 -4.98843 -2.44427
      vertex -42.3 -4.12588 -3.4075
    endloop
  endfacet
  facet normal 1 0 0
    outer loop
      vertex -42.3 -2.83663 1.80294
      vertex -42.3 -6.03129 2.48905
      vertex -42.3 -2.9 1.2
    endloop
  endfacet
  facet normal 1 0 0
    outer loop
      vertex -42.3 -2.34615 -0.504577
      vertex -42.3 -5.63295 -1.32177
      vertex -42.3 -4.98843 -2.44427
    endloop
  endfacet
  facet normal 1 0 0
    outer loop
      vertex -42.3 -6.16604 1.2
      vertex -42.3 -2.9 1.2
      vertex -42.3 -6.03129 2.48905
    endloop
  endfacet
  facet normal 1 0 0
    outer loop
      vertex -42.3 -2.83663 0.597055
      vertex -42.3 -6.03129 -0.089052
      vertex -42.3 -5.63295 -1.32177
    endloop
  endfacet
  facet normal 1 0 0
    outer loop
      vertex -42.3 -2.9 1.2
      vertex -42.3 -6.16604 1.2
      vertex -42.3 -6.03129 -0.089052
    endloop
  endfacet
  facet normal 1 0 0
    outer loop
      vertex -42.3 37.9888 1.5525
      vertex -42.3 40.0204 1.16465
      vertex -42.3 40.0204 1.23535
    endloop
  endfacet
  facet normal 1 0 0
    outer loop
      vertex -42.3 37.9888 1.5525
      vertex -42.3 37.9888 0.847498
      vertex -42.3 40.0204 1.16465
    endloop
  endfacet
  facet normal 1 0 0
    outer loop
      vertex -42.3 36.8337 1.73261
      vertex -42.3 37.9888 0.847498
      vertex -42.3 37.9888 1.5525
    endloop
  endfacet
  facet normal 1 0 0
    outer loop
      vertex -42.3 36.8337 1.73261
      vertex -42.3 36.8337 0.667388
      vertex -42.3 37.9888 0.847498
    endloop
  endfacet
  facet normal 1 0 0
    outer loop
      vertex -42.3 31.8798 2.50408
      vertex -42.3 36.8337 0.667388
      vertex -42.3 36.8337 1.73261
    endloop
  endfacet
  facet normal 1 0 0
    outer loop
      vertex -42.3 31.8798 2.50408
      vertex -42.3 31.8798 -0.104078
      vertex -42.3 36.8337 0.667388
    endloop
  endfacet
  facet normal 1 0 0
    outer loop
      vertex -42.3 31.8798 2.50408
      vertex -42.3 2.9 1.2
      vertex -42.3 31.8798 -0.104078
    endloop
  endfacet
  facet normal 1 0 0
    outer loop
      vertex -42.3 31.8798 2.50408
      vertex -42.3 2.83663 1.80294
      vertex -42.3 2.9 1.2
    endloop
  endfacet
  facet normal 1 0 0
    outer loop
      vertex -42.3 2.15 7.1
      vertex -42.3 2.83663 1.80294
      vertex -42.3 31.8798 2.50408
    endloop
  endfacet
  facet normal 1 0 0
    outer loop
      vertex -42.3 2.83663 1.80294
      vertex -42.3 2.15 7.1
      vertex -42.3 2.64928 2.37954
    endloop
  endfacet
  facet normal 1 0 0
    outer loop
      vertex -42.3 2.64928 2.37954
      vertex -42.3 2.15 7.1
      vertex -42.3 2.34615 2.90458
    endloop
  endfacet
  facet normal 1 0 0
    outer loop
      vertex -42.3 0.644526 7.36604
      vertex -42.3 2.15 7.1
      vertex -42.3 31.8798 2.50408
    endloop
  endfacet
  facet normal 1 0 0
    outer loop
      vertex -42.3 -1.88927 7.1
      vertex -42.3 0.644526 7.36604
      vertex -42.3 -0.644526 7.36604
    endloop
  endfacet
  facet normal 1 0 0
    outer loop
      vertex -42.3 0.644526 7.36604
      vertex -42.3 -1.88927 7.1
      vertex -42.3 2.15 7.1
    endloop
  endfacet
  facet normal 1 -0 0
    outer loop
      vertex -42.3 2.83663 0.597055
      vertex -42.3 31.8798 -0.104078
      vertex -42.3 2.9 1.2
    endloop
  endfacet
  facet normal 1 0 0
    outer loop
      vertex -42.3 2.15 -4.7
      vertex -42.3 2.83663 0.597055
      vertex -42.3 2.64928 0.020463
    endloop
  endfacet
  facet normal 1 0 0
    outer loop
      vertex -42.3 2.15 -4.7
      vertex -42.3 2.64928 0.020463
      vertex -42.3 2.34615 -0.504577
    endloop
  endfacet
  facet normal 1 0 0
    outer loop
      vertex -42.3 2.15 -4.7
      vertex -42.3 2.34615 -0.504577
      vertex -42.3 2.15 -0.722422
    endloop
  endfacet
  facet normal 1 0 0
    outer loop
      vertex -42.3 2.83663 0.597055
      vertex -42.3 2.15 -4.7
      vertex -42.3 31.8798 -0.104078
    endloop
  endfacet
  facet normal 1 -0 0
    outer loop
      vertex -42.3 2.15 -4.7
      vertex -42.3 0.644526 -4.96604
      vertex -42.3 31.8798 -0.104078
    endloop
  endfacet
  facet normal 1 -0 0
    outer loop
      vertex -42.3 -1.88927 -4.7
      vertex -42.3 0.644526 -4.96604
      vertex -42.3 2.15 -4.7
    endloop
  endfacet
  facet normal 1 0 0
    outer loop
      vertex -42.3 0.644526 -4.96604
      vertex -42.3 -1.88927 -4.7
      vertex -42.3 -0.644526 -4.96604
    endloop
  endfacet
  facet normal 1 0 0
    outer loop
      vertex -42.3 2.34615 2.90458
      vertex -42.3 2.15 7.1
      vertex -42.3 2.15 3.12242
    endloop
  endfacet
  facet normal -1 0 0
    outer loop
      vertex -45.3 20.4808 0.532462
      vertex -45.3 20.9231 1.21792
      vertex -45.3 20.9231 1.18208
    endloop
  endfacet
  facet normal -1 0 0
    outer loop
      vertex -45.3 20.4808 0.532462
      vertex -45.3 20.4808 1.86754
      vertex -45.3 20.9231 1.21792
    endloop
  endfacet
  facet normal -1 0 0
    outer loop
      vertex -45.3 19.0489 -0.178087
      vertex -45.3 20.4808 1.86754
      vertex -45.3 20.4808 0.532462
    endloop
  endfacet
  facet normal -1 0 0
    outer loop
      vertex -45.3 19.0489 -0.178087
      vertex -45.3 19.0489 2.57809
      vertex -45.3 20.4808 1.86754
    endloop
  endfacet
  facet normal -1 0 0
    outer loop
      vertex -45.3 16.246 -1.03699
      vertex -45.3 19.0489 2.57809
      vertex -45.3 19.0489 -0.178087
    endloop
  endfacet
  facet normal -1 0 0
    outer loop
      vertex -45.3 16.246 -1.03699
      vertex -45.3 16.246 3.43699
      vertex -45.3 19.0489 2.57809
    endloop
  endfacet
  facet normal -1 0 0
    outer loop
      vertex -45.3 11.1188 -2.21027
      vertex -45.3 16.246 3.43699
      vertex -45.3 16.246 -1.03699
    endloop
  endfacet
  facet normal -1 0 0
    outer loop
      vertex -45.3 11.1188 -2.21027
      vertex -45.3 11.1188 4.61027
      vertex -45.3 16.246 3.43699
    endloop
  endfacet
  facet normal -1 0 0
    outer loop
      vertex -45.3 1.06597 -4.11228
      vertex -45.3 11.1188 4.61027
      vertex -45.3 11.1188 -2.21027
    endloop
  endfacet
  facet normal -1 0 0
    outer loop
      vertex -45.3 1.06597 -4.11228
      vertex -45.3 1.06597 6.51228
      vertex -45.3 11.1188 4.61027
    endloop
  endfacet
  facet normal -1 0 0
    outer loop
      vertex -45.3 0 -4.21388
      vertex -45.3 1.06597 -4.11228
      vertex -45.3 0.743803 -4.16936
    endloop
  endfacet
  facet normal -1 0 0
    outer loop
      vertex -45.3 1.06597 -4.11228
      vertex -45.3 -1.63824 -3.92522
      vertex -45.3 1.06597 6.51228
    endloop
  endfacet
  facet normal -1 0 0
    outer loop
      vertex -45.3 0.625902 -4.18459
      vertex -45.3 0.743803 -4.16936
      vertex -45.3 0.647916 -4.18262
    endloop
  endfacet
  facet normal -1 0 0
    outer loop
      vertex -45.3 0 -4.21388
      vertex -45.3 0.743803 -4.16936
      vertex -45.3 0.625902 -4.18459
    endloop
  endfacet
  facet normal -1 0 0
    outer loop
      vertex -45.3 0.625902 -4.18459
      vertex -45.3 0.647916 -4.18262
      vertex -45.3 0.637669 -4.18404
    endloop
  endfacet
  facet normal -1 -0 0
    outer loop
      vertex -45.3 1.06597 -4.11228
      vertex -45.3 0 -4.21388
      vertex -45.3 -1.63824 -3.92522
    endloop
  endfacet
  facet normal -1 0 0
    outer loop
      vertex -45.3 0.743803 6.56936
      vertex -45.3 0.625902 6.58459
      vertex -45.3 0.647916 6.58262
    endloop
  endfacet
  facet normal -1 0 0
    outer loop
      vertex -45.3 0.647916 6.58262
      vertex -45.3 0.625902 6.58459
      vertex -45.3 0.637669 6.58404
    endloop
  endfacet
  facet normal -1 0 0
    outer loop
      vertex -45.3 -1.63824 6.32522
      vertex -45.3 1.06597 6.51228
      vertex -45.3 -1.63824 -3.92522
    endloop
  endfacet
  facet normal -1 0 0
    outer loop
      vertex -45.3 0.743803 6.56936
      vertex -45.3 0 6.61388
      vertex -45.3 0.625902 6.58459
    endloop
  endfacet
  facet normal -1 0 0
    outer loop
      vertex -45.3 -1.20629 -4.06495
      vertex -45.3 0 -4.21388
      vertex -45.3 -0.625902 -4.18459
    endloop
  endfacet
  facet normal -1 0 -0
    outer loop
      vertex -45.3 0 6.61388
      vertex -45.3 1.06597 6.51228
      vertex -45.3 -1.63824 6.32522
    endloop
  endfacet
  facet normal -1 0 0
    outer loop
      vertex -45.3 -0.647916 -4.18262
      vertex -45.3 -0.625902 -4.18459
      vertex -45.3 -0.637669 -4.18404
    endloop
  endfacet
  facet normal -1 0 0
    outer loop
      vertex -45.3 1.06597 6.51228
      vertex -45.3 0 6.61388
      vertex -45.3 0.743803 6.56936
    endloop
  endfacet
  facet normal -1 0 0
    outer loop
      vertex -45.3 -0.743803 -4.16936
      vertex -45.3 -0.625902 -4.18459
      vertex -45.3 -0.647916 -4.18262
    endloop
  endfacet
  facet normal -1 0 -0
    outer loop
      vertex -45.3 -1.20629 6.46495
      vertex -45.3 0 6.61388
      vertex -45.3 -1.63824 6.32522
    endloop
  endfacet
  facet normal -1 0 0
    outer loop
      vertex -45.3 -0.625902 -4.18459
      vertex -45.3 -0.743803 -4.16936
      vertex -45.3 -1.20629 -4.06495
    endloop
  endfacet
  facet normal -1 0 0
    outer loop
      vertex -45.3 0 -4.21388
      vertex -45.3 -1.20629 -4.06495
      vertex -45.3 -1.63824 -3.92522
    endloop
  endfacet
  facet normal -1 0 0
    outer loop
      vertex -45.3 0 6.61388
      vertex -45.3 -1.20629 6.46495
      vertex -45.3 -0.625902 6.58459
    endloop
  endfacet
  facet normal -1 0 0
    outer loop
      vertex -45.3 -0.625902 6.58459
      vertex -45.3 -0.743803 6.56936
      vertex -45.3 -0.647916 6.58262
    endloop
  endfacet
  facet normal -1 0 0
    outer loop
      vertex -45.3 -1.63824 -3.92522
      vertex -45.3 -1.20629 -4.06495
      vertex -45.3 -1.33569 -4.03574
    endloop
  endfacet
  facet normal -1 0 -0
    outer loop
      vertex -45.3 -0.743803 6.56936
      vertex -45.3 -0.625902 6.58459
      vertex -45.3 -1.20629 6.46495
    endloop
  endfacet
  facet normal -1 0 0
    outer loop
      vertex -45.3 -0.625902 6.58459
      vertex -45.3 -0.647916 6.58262
      vertex -45.3 -0.637669 6.58404
    endloop
  endfacet
  facet normal -1 0 0
    outer loop
      vertex -45.3 -1.20629 6.46495
      vertex -45.3 -1.63824 6.32522
      vertex -45.3 -1.33569 6.43574
    endloop
  endfacet
  facet normal -1 0 0
    outer loop
      vertex -45.3 -2.40104 -3.61924
      vertex -45.3 -1.63824 -3.92522
      vertex -45.3 -2.17963 -3.72747
    endloop
  endfacet
  facet normal -1 0 0
    outer loop
      vertex -45.3 -1.63824 -3.92522
      vertex -45.3 -2.40104 -3.61924
      vertex -45.3 -1.63824 6.32522
    endloop
  endfacet
  facet normal -1 0 0
    outer loop
      vertex -45.3 -2.40104 6.01924
      vertex -45.3 -1.63824 6.32522
      vertex -45.3 -2.40104 -3.61924
    endloop
  endfacet
  facet normal -1 0 0
    outer loop
      vertex -45.3 -1.63824 6.32522
      vertex -45.3 -2.40104 6.01924
      vertex -45.3 -2.17963 6.12747
    endloop
  endfacet
  facet normal -1 0 0
    outer loop
      vertex -45.3 -3.33184 -3.03564
      vertex -45.3 -2.40104 -3.61924
      vertex -45.3 -2.8342 -3.4075
    endloop
  endfacet
  facet normal -1 0 0
    outer loop
      vertex -45.3 -3.6901 -2.71197
      vertex -45.3 -2.40104 -3.61924
      vertex -45.3 -3.33184 -3.03564
    endloop
  endfacet
  facet normal -1 0 0
    outer loop
      vertex -45.3 -2.40104 -3.61924
      vertex -45.3 -3.6901 -2.71197
      vertex -45.3 -2.40104 6.01924
    endloop
  endfacet
  facet normal -1 0 0
    outer loop
      vertex -45.3 -2.40104 6.01924
      vertex -45.3 -3.33184 5.43564
      vertex -45.3 -2.8342 5.8075
    endloop
  endfacet
  facet normal -1 0 0
    outer loop
      vertex -45.3 -3.6901 5.11197
      vertex -45.3 -2.40104 6.01924
      vertex -45.3 -3.6901 -2.71197
    endloop
  endfacet
  facet normal -1 0 0
    outer loop
      vertex -45.3 -2.40104 6.01924
      vertex -45.3 -3.6901 5.11197
      vertex -45.3 -3.33184 5.43564
    endloop
  endfacet
  facet normal -1 0 0
    outer loop
      vertex -45.3 -4.5278 -1.68146
      vertex -45.3 -3.6901 -2.71197
      vertex -45.3 -3.98641 -2.44427
    endloop
  endfacet
  facet normal -1 0 0
    outer loop
      vertex -45.3 -3.6901 -2.71197
      vertex -45.3 -4.5278 -1.68146
      vertex -45.3 -3.6901 5.11197
    endloop
  endfacet
  facet normal -1 0 0
    outer loop
      vertex -45.3 -4.5278 4.08146
      vertex -45.3 -3.6901 5.11197
      vertex -45.3 -4.5278 -1.68146
    endloop
  endfacet
  facet normal -1 0 0
    outer loop
      vertex -45.3 -3.6901 5.11197
      vertex -45.3 -4.5278 4.08146
      vertex -45.3 -3.98641 4.84427
    endloop
  endfacet
  facet normal -1 0 0
    outer loop
      vertex -45.3 -5.19615 -0.287606
      vertex -45.3 -4.5278 -1.68146
      vertex -45.3 -4.78308 -1.32177
    endloop
  endfacet
  facet normal -1 0 0
    outer loop
      vertex -45.3 -4.5278 -1.68146
      vertex -45.3 -5.19615 -0.287606
      vertex -45.3 -4.5278 4.08146
    endloop
  endfacet
  facet normal -1 0 0
    outer loop
      vertex -45.3 -5.19615 2.68761
      vertex -45.3 -4.5278 4.08146
      vertex -45.3 -5.19615 -0.287606
    endloop
  endfacet
  facet normal -1 0 0
    outer loop
      vertex -45.3 -4.5278 4.08146
      vertex -45.3 -5.19615 2.68761
      vertex -45.3 -4.78308 3.72177
    endloop
  endfacet
  facet normal -1 0 0
    outer loop
      vertex -45.3 -5.27065 -0.0518048
      vertex -45.3 -5.19615 -0.287606
      vertex -45.3 -5.25541 -0.120069
    endloop
  endfacet
  facet normal -1 0 0
    outer loop
      vertex -45.3 -5.41388 1.2
      vertex -45.3 -5.19615 -0.287606
      vertex -45.3 -5.27065 -0.0518048
    endloop
  endfacet
  facet normal -1 0 0
    outer loop
      vertex -45.3 -5.27065 -0.0518048
      vertex -45.3 -5.25541 -0.120069
      vertex -45.3 -5.26639 -0.089052
    endloop
  endfacet
  facet normal -1 0 0
    outer loop
      vertex -45.3 -5.19615 -0.287606
      vertex -45.3 -5.41388 1.2
      vertex -45.3 -5.19615 2.68761
    endloop
  endfacet
  facet normal -1 0 0
    outer loop
      vertex -45.3 -5.19615 2.68761
      vertex -45.3 -5.27065 2.4518
      vertex -45.3 -5.25541 2.52007
    endloop
  endfacet
  facet normal -1 0 0
    outer loop
      vertex -45.3 -5.25541 2.52007
      vertex -45.3 -5.27065 2.4518
      vertex -45.3 -5.26639 2.48905
    endloop
  endfacet
  facet normal -1 0 0
    outer loop
      vertex -45.3 -5.19615 2.68761
      vertex -45.3 -5.41388 1.2
      vertex -45.3 -5.27065 2.4518
    endloop
  endfacet
endsolid OpenSCAD_Model
