solid OpenSCAD_Model
  facet normal 1 0 0
    outer loop
      vertex 25 -28.2 25
      vertex 25 -32.3 25
      vertex 25 -28.2 -11
    endloop
  endfacet
  facet normal 1 0 0
    outer loop
      vertex 25 -19 -11
      vertex 25 -0.1 25
      vertex 25 -19 25
    endloop
  endfacet
  facet normal 1 0 0
    outer loop
      vertex 25 -0.1 25
      vertex 25 -19 -11
      vertex 25 -0.1 -15
    endloop
  endfacet
  facet normal 1 0 0
    outer loop
      vertex 25 -32.3 -15
      vertex 25 -19 -11
      vertex 25 -28.2 -11
    endloop
  endfacet
  facet normal 1 0 0
    outer loop
      vertex 25 -19 -11
      vertex 25 -32.3 -15
      vertex 25 -0.1 -15
    endloop
  endfacet
  facet normal 1 0 0
    outer loop
      vertex 25 -32.3 -15
      vertex 25 -28.2 -11
      vertex 25 -32.3 25
    endloop
  endfacet
  facet normal 0 1 0
    outer loop
      vertex -11.5 -0.1 19.9186
      vertex -19.2322 -0.1 17.7678
      vertex -21 -0.1 18.5
    endloop
  endfacet
  facet normal 0 1 -0
    outer loop
      vertex -15.39 -0.1 17.0923
      vertex -19.2322 -0.1 17.7678
      vertex -11.5 -0.1 19.9186
    endloop
  endfacet
  facet normal 0 1 0
    outer loop
      vertex -15.39 -0.1 17.0923
      vertex -18.5 -0.1 16
      vertex -19.2322 -0.1 17.7678
    endloop
  endfacet
  facet normal 0 1 0
    outer loop
      vertex -18.6074 -0.1 13.5191
      vertex -18.5 -0.1 16
      vertex -15.39 -0.1 17.0923
    endloop
  endfacet
  facet normal 0 1 0
    outer loop
      vertex -18.5 -0.1 16
      vertex -18.6074 -0.1 13.5191
      vertex -19.2322 -0.1 14.2322
    endloop
  endfacet
  facet normal 0 1 0
    outer loop
      vertex -18.6074 -0.1 13.5191
      vertex -21 -0.1 13.5
      vertex -19.2322 -0.1 14.2322
    endloop
  endfacet
  facet normal -0 1 0
    outer loop
      vertex -21 -0.1 13.5
      vertex -18.6074 -0.1 13.5191
      vertex -21.0115 -0.1 9.35494
    endloop
  endfacet
  facet normal 0 1 0
    outer loop
      vertex 25 -0.1 25
      vertex 2.40415 -0.1 22.874
      vertex -25 -0.1 25
    endloop
  endfacet
  facet normal 0 1 0
    outer loop
      vertex 25 -0.1 25
      vertex 7.10739 -0.1 21.8743
      vertex 2.40415 -0.1 22.874
    endloop
  endfacet
  facet normal 0 1 0
    outer loop
      vertex 25 -0.1 25
      vertex 11.5 -0.1 19.9186
      vertex 7.10739 -0.1 21.8743
    endloop
  endfacet
  facet normal 0 1 0
    outer loop
      vertex 25 -0.1 25
      vertex 21 -0.1 18.5
      vertex 11.5 -0.1 19.9186
    endloop
  endfacet
  facet normal 0 1 0
    outer loop
      vertex 25 -0.1 25
      vertex 22.7678 -0.1 17.7678
      vertex 21 -0.1 18.5
    endloop
  endfacet
  facet normal 0 1 0
    outer loop
      vertex 25 -0.1 25
      vertex 23.5 -0.1 16
      vertex 22.7678 -0.1 17.7678
    endloop
  endfacet
  facet normal 0 1 0
    outer loop
      vertex 22.7678 -0.1 14.2322
      vertex 21.0115 -0.1 9.35494
      vertex 21 -0.1 13.5
    endloop
  endfacet
  facet normal 0 1 0
    outer loop
      vertex 22.4974 -0.1 4.78197
      vertex 22.7678 -0.1 14.2322
      vertex 23.5 -0.1 16
    endloop
  endfacet
  facet normal 0 1 0
    outer loop
      vertex 22.7678 -0.1 14.2322
      vertex 22.4974 -0.1 4.78197
      vertex 21.0115 -0.1 9.35494
    endloop
  endfacet
  facet normal 0 1 0
    outer loop
      vertex 23 -0.1 0
      vertex 23.5 -0.1 16
      vertex 25 -0.1 25
    endloop
  endfacet
  facet normal 0 1 0
    outer loop
      vertex 23.5 -0.1 16
      vertex 23 -0.1 0
      vertex 22.4974 -0.1 4.78197
    endloop
  endfacet
  facet normal 0 1 -0
    outer loop
      vertex 25 -0.1 -15
      vertex 23 -0.1 0
      vertex 25 -0.1 25
    endloop
  endfacet
  facet normal 0 1 0
    outer loop
      vertex 25 -0.1 -15
      vertex 22.4974 -0.1 -4.78197
      vertex 23 -0.1 0
    endloop
  endfacet
  facet normal 0 1 0
    outer loop
      vertex 25 -0.1 -15
      vertex 21.0115 -0.1 -9.35494
      vertex 22.4974 -0.1 -4.78197
    endloop
  endfacet
  facet normal 0 1 0
    outer loop
      vertex 25 -0.1 -15
      vertex 18.6074 -0.1 -13.5191
      vertex 21.0115 -0.1 -9.35494
    endloop
  endfacet
  facet normal 0 1 0
    outer loop
      vertex 18.6074 -0.1 -13.5191
      vertex 25 -0.1 -15
      vertex 17.2739 -0.1 -15
    endloop
  endfacet
  facet normal 0 1 -0
    outer loop
      vertex -2.40415 -0.1 22.874
      vertex -25 -0.1 25
      vertex 2.40415 -0.1 22.874
    endloop
  endfacet
  facet normal 0 1 -0
    outer loop
      vertex -7.10739 -0.1 21.8743
      vertex -25 -0.1 25
      vertex -2.40415 -0.1 22.874
    endloop
  endfacet
  facet normal 0 1 -0
    outer loop
      vertex -11.5 -0.1 19.9186
      vertex -25 -0.1 25
      vertex -7.10739 -0.1 21.8743
    endloop
  endfacet
  facet normal 0 1 -0
    outer loop
      vertex -21 -0.1 18.5
      vertex -25 -0.1 25
      vertex -11.5 -0.1 19.9186
    endloop
  endfacet
  facet normal 0 1 -0
    outer loop
      vertex -22.7678 -0.1 17.7678
      vertex -25 -0.1 25
      vertex -21 -0.1 18.5
    endloop
  endfacet
  facet normal 0 1 -0
    outer loop
      vertex -23.5 -0.1 16
      vertex -25 -0.1 25
      vertex -22.7678 -0.1 17.7678
    endloop
  endfacet
  facet normal 0 1 -0
    outer loop
      vertex -21.0115 -0.1 9.35494
      vertex -22.7678 -0.1 14.2322
      vertex -21 -0.1 13.5
    endloop
  endfacet
  facet normal 0 1 -0
    outer loop
      vertex -22.4974 -0.1 4.78197
      vertex -22.7678 -0.1 14.2322
      vertex -21.0115 -0.1 9.35494
    endloop
  endfacet
  facet normal 0 1 0
    outer loop
      vertex -22.7678 -0.1 14.2322
      vertex -22.4974 -0.1 4.78197
      vertex -23.5 -0.1 16
    endloop
  endfacet
  facet normal 0 1 -0
    outer loop
      vertex -23 -0.1 0
      vertex -23.5 -0.1 16
      vertex -22.4974 -0.1 4.78197
    endloop
  endfacet
  facet normal 0 1 0
    outer loop
      vertex -23.5 -0.1 16
      vertex -23 -0.1 0
      vertex -25 -0.1 25
    endloop
  endfacet
  facet normal 0 1 0
    outer loop
      vertex -23 -0.1 0
      vertex -25 -0.1 -15
      vertex -25 -0.1 25
    endloop
  endfacet
  facet normal 0 1 0
    outer loop
      vertex -22.4974 -0.1 -4.78197
      vertex -25 -0.1 -15
      vertex -23 -0.1 0
    endloop
  endfacet
  facet normal 0 1 0
    outer loop
      vertex -21.0115 -0.1 -9.35494
      vertex -25 -0.1 -15
      vertex -22.4974 -0.1 -4.78197
    endloop
  endfacet
  facet normal 0 1 0
    outer loop
      vertex -18.6074 -0.1 -13.5191
      vertex -25 -0.1 -15
      vertex -21.0115 -0.1 -9.35494
    endloop
  endfacet
  facet normal 0 1 0
    outer loop
      vertex -25 -0.1 -15
      vertex -18.6074 -0.1 -13.5191
      vertex -17.2739 -0.1 -15
    endloop
  endfacet
  facet normal 0 1 -0
    outer loop
      vertex 19.2322 -0.1 17.7678
      vertex 11.5 -0.1 19.9186
      vertex 21 -0.1 18.5
    endloop
  endfacet
  facet normal 0 1 0
    outer loop
      vertex 19.2322 -0.1 17.7678
      vertex 15.39 -0.1 17.0923
      vertex 11.5 -0.1 19.9186
    endloop
  endfacet
  facet normal 0 1 -0
    outer loop
      vertex 18.5 -0.1 16
      vertex 15.39 -0.1 17.0923
      vertex 19.2322 -0.1 17.7678
    endloop
  endfacet
  facet normal 0 1 -0
    outer loop
      vertex 18.6074 -0.1 13.5191
      vertex 18.5 -0.1 16
      vertex 19.2322 -0.1 14.2322
    endloop
  endfacet
  facet normal 0 1 0
    outer loop
      vertex 18.5 -0.1 16
      vertex 18.6074 -0.1 13.5191
      vertex 15.39 -0.1 17.0923
    endloop
  endfacet
  facet normal 0 1 0
    outer loop
      vertex 21 -0.1 13.5
      vertex 18.6074 -0.1 13.5191
      vertex 19.2322 -0.1 14.2322
    endloop
  endfacet
  facet normal 0 1 0
    outer loop
      vertex 18.6074 -0.1 13.5191
      vertex 21 -0.1 13.5
      vertex 21.0115 -0.1 9.35494
    endloop
  endfacet
  facet normal 0 1 0
    outer loop
      vertex 1.95408 -0.1 7.29274
      vertex -1.95408 -0.1 7.29274
      vertex 0 -0.1 7.55
    endloop
  endfacet
  facet normal 0 1 0
    outer loop
      vertex 3.775 -0.1 6.53849
      vertex -1.95408 -0.1 7.29274
      vertex 1.95408 -0.1 7.29274
    endloop
  endfacet
  facet normal 0 1 0
    outer loop
      vertex 3.775 -0.1 6.53849
      vertex -3.775 -0.1 6.53849
      vertex -1.95408 -0.1 7.29274
    endloop
  endfacet
  facet normal 0 1 0
    outer loop
      vertex 5.33866 -0.1 5.33866
      vertex -3.775 -0.1 6.53849
      vertex 3.775 -0.1 6.53849
    endloop
  endfacet
  facet normal 0 1 0
    outer loop
      vertex 5.33866 -0.1 5.33866
      vertex -5.33866 -0.1 5.33866
      vertex -3.775 -0.1 6.53849
    endloop
  endfacet
  facet normal 0 1 0
    outer loop
      vertex 6.53849 -0.1 3.775
      vertex -5.33866 -0.1 5.33866
      vertex 5.33866 -0.1 5.33866
    endloop
  endfacet
  facet normal 0 1 0
    outer loop
      vertex 6.53849 -0.1 3.775
      vertex -6.53849 -0.1 3.775
      vertex -5.33866 -0.1 5.33866
    endloop
  endfacet
  facet normal 0 1 0
    outer loop
      vertex 7.29274 -0.1 1.95408
      vertex -6.53849 -0.1 3.775
      vertex 6.53849 -0.1 3.775
    endloop
  endfacet
  facet normal 0 1 0
    outer loop
      vertex 7.29274 -0.1 1.95408
      vertex -7.29274 -0.1 1.95408
      vertex -6.53849 -0.1 3.775
    endloop
  endfacet
  facet normal 0 1 0
    outer loop
      vertex 7.55 -0.1 0
      vertex -7.29274 -0.1 1.95408
      vertex 7.29274 -0.1 1.95408
    endloop
  endfacet
  facet normal 0 1 0
    outer loop
      vertex 7.55 -0.1 0
      vertex -7.55 -0.1 0
      vertex -7.29274 -0.1 1.95408
    endloop
  endfacet
  facet normal 0 1 -0
    outer loop
      vertex 7.29274 -0.1 -1.95408
      vertex -7.55 -0.1 0
      vertex 7.55 -0.1 0
    endloop
  endfacet
  facet normal 0 1 0
    outer loop
      vertex 7.29274 -0.1 -1.95408
      vertex -7.29274 -0.1 -1.95408
      vertex -7.55 -0.1 0
    endloop
  endfacet
  facet normal 0 1 -0
    outer loop
      vertex 6.53849 -0.1 -3.775
      vertex -7.29274 -0.1 -1.95408
      vertex 7.29274 -0.1 -1.95408
    endloop
  endfacet
  facet normal 0 1 0
    outer loop
      vertex 6.53849 -0.1 -3.775
      vertex -6.53849 -0.1 -3.775
      vertex -7.29274 -0.1 -1.95408
    endloop
  endfacet
  facet normal 0 1 -0
    outer loop
      vertex 5.33866 -0.1 -5.33866
      vertex -6.53849 -0.1 -3.775
      vertex 6.53849 -0.1 -3.775
    endloop
  endfacet
  facet normal 0 1 0
    outer loop
      vertex 5.33866 -0.1 -5.33866
      vertex -5.33866 -0.1 -5.33866
      vertex -6.53849 -0.1 -3.775
    endloop
  endfacet
  facet normal 0 1 -0
    outer loop
      vertex 3.775 -0.1 -6.53849
      vertex -5.33866 -0.1 -5.33866
      vertex 5.33866 -0.1 -5.33866
    endloop
  endfacet
  facet normal 0 1 0
    outer loop
      vertex 3.775 -0.1 -6.53849
      vertex -3.775 -0.1 -6.53849
      vertex -5.33866 -0.1 -5.33866
    endloop
  endfacet
  facet normal 0 1 -0
    outer loop
      vertex 1.95408 -0.1 -7.29274
      vertex -3.775 -0.1 -6.53849
      vertex 3.775 -0.1 -6.53849
    endloop
  endfacet
  facet normal 0 1 0
    outer loop
      vertex 1.95408 -0.1 -7.29274
      vertex -1.95408 -0.1 -7.29274
      vertex -3.775 -0.1 -6.53849
    endloop
  endfacet
  facet normal -0 1 0
    outer loop
      vertex -1.95408 -0.1 -7.29274
      vertex 1.95408 -0.1 -7.29274
      vertex 0 -0.1 -7.55
    endloop
  endfacet
  facet normal -1 0 0
    outer loop
      vertex -25 -0.1 -15
      vertex -25 -19 -11
      vertex -25 -0.1 25
    endloop
  endfacet
  facet normal -1 0 0
    outer loop
      vertex -25 -32.3 -15
      vertex -25 -19 -11
      vertex -25 -0.1 -15
    endloop
  endfacet
  facet normal -1 -0 0
    outer loop
      vertex -25 -19 -11
      vertex -25 -32.3 -15
      vertex -25 -28.2 -11
    endloop
  endfacet
  facet normal -1 0 0
    outer loop
      vertex -25 -32.3 25
      vertex -25 -28.2 -11
      vertex -25 -32.3 -15
    endloop
  endfacet
  facet normal -1 0 0
    outer loop
      vertex -25 -28.2 -11
      vertex -25 -32.3 25
      vertex -25 -28.2 25
    endloop
  endfacet
  facet normal -1 -0 0
    outer loop
      vertex -25 -0.1 25
      vertex -25 -19 -11
      vertex -25 -19 25
    endloop
  endfacet
  facet normal -0 0 1
    outer loop
      vertex -25 -28.2 25
      vertex 25 -32.3 25
      vertex 25 -28.2 25
    endloop
  endfacet
  facet normal 0 0 1
    outer loop
      vertex 25 -32.3 25
      vertex -25 -28.2 25
      vertex -25 -32.3 25
    endloop
  endfacet
  facet normal -0 0 1
    outer loop
      vertex -25 -0.1 25
      vertex 25 -19 25
      vertex 25 -0.1 25
    endloop
  endfacet
  facet normal 0 0 1
    outer loop
      vertex 25 -19 25
      vertex -25 -0.1 25
      vertex -25 -19 25
    endloop
  endfacet
  facet normal 0 0 -1
    outer loop
      vertex 25 -32.3 -15
      vertex 17.2739 -15 -15
      vertex 25 -0.1 -15
    endloop
  endfacet
  facet normal 0 0 -1
    outer loop
      vertex 25 -32.3 -15
      vertex -17.2739 -15 -15
      vertex 17.2739 -15 -15
    endloop
  endfacet
  facet normal 0 0 -1
    outer loop
      vertex -25 -32.3 -15
      vertex -17.2739 -15 -15
      vertex 25 -32.3 -15
    endloop
  endfacet
  facet normal 0 0 -1
    outer loop
      vertex -25 -0.1 -15
      vertex -17.2739 -15 -15
      vertex -25 -32.3 -15
    endloop
  endfacet
  facet normal 0 0 -1
    outer loop
      vertex -17.2739 -15 -15
      vertex -25 -0.1 -15
      vertex -17.2739 -0.1 -15
    endloop
  endfacet
  facet normal -0 0 -1
    outer loop
      vertex 25 -0.1 -15
      vertex 17.2739 -15 -15
      vertex 17.2739 -0.1 -15
    endloop
  endfacet
  facet normal 0 -1 0
    outer loop
      vertex 19.2322 -32.3 17.7678
      vertex 25 -32.3 25
      vertex -19.2322 -32.3 17.7678
    endloop
  endfacet
  facet normal 0 -1 0
    outer loop
      vertex 25 -32.3 25
      vertex 19.2322 -32.3 17.7678
      vertex 21 -32.3 18.5
    endloop
  endfacet
  facet normal 0 -1 0
    outer loop
      vertex -18.5 -32.3 16
      vertex 19.2322 -32.3 17.7678
      vertex -19.2322 -32.3 17.7678
    endloop
  endfacet
  facet normal 0 -1 0
    outer loop
      vertex -18.5 -32.3 16
      vertex 18.5 -32.3 16
      vertex 19.2322 -32.3 17.7678
    endloop
  endfacet
  facet normal 0 -1 0
    outer loop
      vertex -19.2322 -32.3 14.2322
      vertex 18.5 -32.3 16
      vertex -18.5 -32.3 16
    endloop
  endfacet
  facet normal 0 -1 0
    outer loop
      vertex -19.2322 -32.3 14.2322
      vertex 19.2322 -32.3 14.2322
      vertex 18.5 -32.3 16
    endloop
  endfacet
  facet normal 0 -1 0
    outer loop
      vertex -25 -32.3 -15
      vertex -19.2322 -32.3 14.2322
      vertex -21 -32.3 13.5
    endloop
  endfacet
  facet normal 0 -1 -0
    outer loop
      vertex -19.2322 -32.3 14.2322
      vertex -25 -32.3 -15
      vertex 19.2322 -32.3 14.2322
    endloop
  endfacet
  facet normal 0 -1 0
    outer loop
      vertex -19.2322 -32.3 17.7678
      vertex -25 -32.3 25
      vertex -21 -32.3 18.5
    endloop
  endfacet
  facet normal 0 -1 0
    outer loop
      vertex -25 -32.3 25
      vertex -22.7678 -32.3 17.7678
      vertex -21 -32.3 18.5
    endloop
  endfacet
  facet normal 0 -1 0
    outer loop
      vertex -25 -32.3 25
      vertex -23.5 -32.3 16
      vertex -22.7678 -32.3 17.7678
    endloop
  endfacet
  facet normal 0 -1 0
    outer loop
      vertex 25 -32.3 -15
      vertex 19.2322 -32.3 14.2322
      vertex -25 -32.3 -15
    endloop
  endfacet
  facet normal 0 -1 -0
    outer loop
      vertex -22.7678 -32.3 14.2322
      vertex -25 -32.3 -15
      vertex -21 -32.3 13.5
    endloop
  endfacet
  facet normal 0 -1 -0
    outer loop
      vertex -23.5 -32.3 16
      vertex -25 -32.3 -15
      vertex -22.7678 -32.3 14.2322
    endloop
  endfacet
  facet normal 0 -1 0
    outer loop
      vertex -25 -32.3 -15
      vertex -23.5 -32.3 16
      vertex -25 -32.3 25
    endloop
  endfacet
  facet normal 0 -1 0
    outer loop
      vertex -25 -32.3 25
      vertex -19.2322 -32.3 17.7678
      vertex 25 -32.3 25
    endloop
  endfacet
  facet normal 0 -1 0
    outer loop
      vertex 22.7678 -32.3 17.7678
      vertex 25 -32.3 25
      vertex 21 -32.3 18.5
    endloop
  endfacet
  facet normal 0 -1 0
    outer loop
      vertex 23.5 -32.3 16
      vertex 25 -32.3 25
      vertex 22.7678 -32.3 17.7678
    endloop
  endfacet
  facet normal 0 -1 0
    outer loop
      vertex 19.2322 -32.3 14.2322
      vertex 25 -32.3 -15
      vertex 21 -32.3 13.5
    endloop
  endfacet
  facet normal 0 -1 0
    outer loop
      vertex 23.5 -32.3 16
      vertex 25 -32.3 -15
      vertex 25 -32.3 25
    endloop
  endfacet
  facet normal 0 -1 0
    outer loop
      vertex 22.7678 -32.3 14.2322
      vertex 25 -32.3 -15
      vertex 23.5 -32.3 16
    endloop
  endfacet
  facet normal 0 -1 0
    outer loop
      vertex 21 -32.3 13.5
      vertex 25 -32.3 -15
      vertex 22.7678 -32.3 14.2322
    endloop
  endfacet
  facet normal 0.382663 0 0.923888
    outer loop
      vertex 19.2322 -0.1 14.2322
      vertex 21 -19 13.5
      vertex 21 -0.1 13.5
    endloop
  endfacet
  facet normal 0.382663 0 0.923888
    outer loop
      vertex 21 -19 13.5
      vertex 19.2322 -0.1 14.2322
      vertex 19.2322 -19 14.2322
    endloop
  endfacet
  facet normal 0.382663 0 0.923888
    outer loop
      vertex 19.2322 -28.2 14.2322
      vertex 21 -32.3 13.5
      vertex 21 -28.2 13.5
    endloop
  endfacet
  facet normal 0.382663 0 0.923888
    outer loop
      vertex 21 -32.3 13.5
      vertex 19.2322 -28.2 14.2322
      vertex 19.2322 -32.3 14.2322
    endloop
  endfacet
  facet normal -0.382663 0 -0.923888
    outer loop
      vertex 21 -19 18.5
      vertex 22.7678 -0.1 17.7678
      vertex 22.7678 -19 17.7678
    endloop
  endfacet
  facet normal -0.382663 0 -0.923888
    outer loop
      vertex 22.7678 -0.1 17.7678
      vertex 21 -19 18.5
      vertex 21 -0.1 18.5
    endloop
  endfacet
  facet normal -0.382663 0 -0.923888
    outer loop
      vertex 21 -32.3 18.5
      vertex 22.7678 -28.2 17.7678
      vertex 22.7678 -32.3 17.7678
    endloop
  endfacet
  facet normal -0.382663 0 -0.923888
    outer loop
      vertex 22.7678 -28.2 17.7678
      vertex 21 -32.3 18.5
      vertex 21 -28.2 18.5
    endloop
  endfacet
  facet normal -0.923888 0 -0.382663
    outer loop
      vertex 23.5 -19 16
      vertex 22.7678 -0.1 17.7678
      vertex 23.5 -0.1 16
    endloop
  endfacet
  facet normal -0.923888 -0 -0.382663
    outer loop
      vertex 22.7678 -0.1 17.7678
      vertex 23.5 -19 16
      vertex 22.7678 -19 17.7678
    endloop
  endfacet
  facet normal -0.923888 0 -0.382663
    outer loop
      vertex 23.5 -32.3 16
      vertex 22.7678 -28.2 17.7678
      vertex 23.5 -28.2 16
    endloop
  endfacet
  facet normal -0.923888 -0 -0.382663
    outer loop
      vertex 22.7678 -28.2 17.7678
      vertex 23.5 -32.3 16
      vertex 22.7678 -32.3 17.7678
    endloop
  endfacet
  facet normal 0.382663 0 -0.923888
    outer loop
      vertex 19.2322 -19 17.7678
      vertex 21 -0.1 18.5
      vertex 21 -19 18.5
    endloop
  endfacet
  facet normal 0.382663 0 -0.923888
    outer loop
      vertex 21 -0.1 18.5
      vertex 19.2322 -19 17.7678
      vertex 19.2322 -0.1 17.7678
    endloop
  endfacet
  facet normal 0.382663 0 -0.923888
    outer loop
      vertex 19.2322 -32.3 17.7678
      vertex 21 -28.2 18.5
      vertex 21 -32.3 18.5
    endloop
  endfacet
  facet normal 0.382663 0 -0.923888
    outer loop
      vertex 21 -28.2 18.5
      vertex 19.2322 -32.3 17.7678
      vertex 19.2322 -28.2 17.7678
    endloop
  endfacet
  facet normal -0.382663 0 0.923888
    outer loop
      vertex 21 -0.1 13.5
      vertex 22.7678 -19 14.2322
      vertex 22.7678 -0.1 14.2322
    endloop
  endfacet
  facet normal -0.382663 0 0.923888
    outer loop
      vertex 22.7678 -19 14.2322
      vertex 21 -0.1 13.5
      vertex 21 -19 13.5
    endloop
  endfacet
  facet normal -0.382663 0 0.923888
    outer loop
      vertex 21 -28.2 13.5
      vertex 22.7678 -32.3 14.2322
      vertex 22.7678 -28.2 14.2322
    endloop
  endfacet
  facet normal -0.382663 0 0.923888
    outer loop
      vertex 22.7678 -32.3 14.2322
      vertex 21 -28.2 13.5
      vertex 21 -32.3 13.5
    endloop
  endfacet
  facet normal -0.923888 0 0.382663
    outer loop
      vertex 22.7678 -19 14.2322
      vertex 23.5 -0.1 16
      vertex 22.7678 -0.1 14.2322
    endloop
  endfacet
  facet normal -0.923888 0 0.382663
    outer loop
      vertex 23.5 -0.1 16
      vertex 22.7678 -19 14.2322
      vertex 23.5 -19 16
    endloop
  endfacet
  facet normal -0.923888 0 0.382663
    outer loop
      vertex 22.7678 -32.3 14.2322
      vertex 23.5 -28.2 16
      vertex 22.7678 -28.2 14.2322
    endloop
  endfacet
  facet normal -0.923888 0 0.382663
    outer loop
      vertex 23.5 -28.2 16
      vertex 22.7678 -32.3 14.2322
      vertex 23.5 -32.3 16
    endloop
  endfacet
  facet normal 0.923888 -0 0.382663
    outer loop
      vertex 18.5 -19 16
      vertex 19.2322 -0.1 14.2322
      vertex 18.5 -0.1 16
    endloop
  endfacet
  facet normal 0.923888 0 0.382663
    outer loop
      vertex 19.2322 -0.1 14.2322
      vertex 18.5 -19 16
      vertex 19.2322 -19 14.2322
    endloop
  endfacet
  facet normal 0.923888 -0 0.382663
    outer loop
      vertex 18.5 -32.3 16
      vertex 19.2322 -28.2 14.2322
      vertex 18.5 -28.2 16
    endloop
  endfacet
  facet normal 0.923888 0 0.382663
    outer loop
      vertex 19.2322 -28.2 14.2322
      vertex 18.5 -32.3 16
      vertex 19.2322 -32.3 14.2322
    endloop
  endfacet
  facet normal 0.923888 0 -0.382663
    outer loop
      vertex 19.2322 -19 17.7678
      vertex 18.5 -0.1 16
      vertex 19.2322 -0.1 17.7678
    endloop
  endfacet
  facet normal 0.923888 0 -0.382663
    outer loop
      vertex 18.5 -0.1 16
      vertex 19.2322 -19 17.7678
      vertex 18.5 -19 16
    endloop
  endfacet
  facet normal 0.923888 0 -0.382663
    outer loop
      vertex 19.2322 -32.3 17.7678
      vertex 18.5 -28.2 16
      vertex 19.2322 -28.2 17.7678
    endloop
  endfacet
  facet normal 0.923888 0 -0.382663
    outer loop
      vertex 18.5 -28.2 16
      vertex 19.2322 -32.3 17.7678
      vertex 18.5 -32.3 16
    endloop
  endfacet
  facet normal 0.923888 -0 0.382663
    outer loop
      vertex -23.5 -19 16
      vertex -22.7678 -0.1 14.2322
      vertex -23.5 -0.1 16
    endloop
  endfacet
  facet normal 0.923888 0 0.382663
    outer loop
      vertex -22.7678 -0.1 14.2322
      vertex -23.5 -19 16
      vertex -22.7678 -19 14.2322
    endloop
  endfacet
  facet normal 0.923888 -0 0.382663
    outer loop
      vertex -23.5 -32.3 16
      vertex -22.7678 -28.2 14.2322
      vertex -23.5 -28.2 16
    endloop
  endfacet
  facet normal 0.923888 0 0.382663
    outer loop
      vertex -22.7678 -28.2 14.2322
      vertex -23.5 -32.3 16
      vertex -22.7678 -32.3 14.2322
    endloop
  endfacet
  facet normal -0.382663 0 -0.923888
    outer loop
      vertex -21 -19 18.5
      vertex -19.2322 -0.1 17.7678
      vertex -19.2322 -19 17.7678
    endloop
  endfacet
  facet normal -0.382663 0 -0.923888
    outer loop
      vertex -19.2322 -0.1 17.7678
      vertex -21 -19 18.5
      vertex -21 -0.1 18.5
    endloop
  endfacet
  facet normal -0.382663 0 -0.923888
    outer loop
      vertex -21 -32.3 18.5
      vertex -19.2322 -28.2 17.7678
      vertex -19.2322 -32.3 17.7678
    endloop
  endfacet
  facet normal -0.382663 0 -0.923888
    outer loop
      vertex -19.2322 -28.2 17.7678
      vertex -21 -32.3 18.5
      vertex -21 -28.2 18.5
    endloop
  endfacet
  facet normal -0.923888 0 -0.382663
    outer loop
      vertex -18.5 -19 16
      vertex -19.2322 -0.1 17.7678
      vertex -18.5 -0.1 16
    endloop
  endfacet
  facet normal -0.923888 -0 -0.382663
    outer loop
      vertex -19.2322 -0.1 17.7678
      vertex -18.5 -19 16
      vertex -19.2322 -19 17.7678
    endloop
  endfacet
  facet normal -0.923888 0 -0.382663
    outer loop
      vertex -18.5 -32.3 16
      vertex -19.2322 -28.2 17.7678
      vertex -18.5 -28.2 16
    endloop
  endfacet
  facet normal -0.923888 -0 -0.382663
    outer loop
      vertex -19.2322 -28.2 17.7678
      vertex -18.5 -32.3 16
      vertex -19.2322 -32.3 17.7678
    endloop
  endfacet
  facet normal 0.923888 0 -0.382663
    outer loop
      vertex -22.7678 -19 17.7678
      vertex -23.5 -0.1 16
      vertex -22.7678 -0.1 17.7678
    endloop
  endfacet
  facet normal 0.923888 0 -0.382663
    outer loop
      vertex -23.5 -0.1 16
      vertex -22.7678 -19 17.7678
      vertex -23.5 -19 16
    endloop
  endfacet
  facet normal 0.923888 0 -0.382663
    outer loop
      vertex -22.7678 -32.3 17.7678
      vertex -23.5 -28.2 16
      vertex -22.7678 -28.2 17.7678
    endloop
  endfacet
  facet normal 0.923888 0 -0.382663
    outer loop
      vertex -23.5 -28.2 16
      vertex -22.7678 -32.3 17.7678
      vertex -23.5 -32.3 16
    endloop
  endfacet
  facet normal -0.923888 0 0.382663
    outer loop
      vertex -19.2322 -19 14.2322
      vertex -18.5 -0.1 16
      vertex -19.2322 -0.1 14.2322
    endloop
  endfacet
  facet normal -0.923888 0 0.382663
    outer loop
      vertex -18.5 -0.1 16
      vertex -19.2322 -19 14.2322
      vertex -18.5 -19 16
    endloop
  endfacet
  facet normal -0.923888 0 0.382663
    outer loop
      vertex -19.2322 -32.3 14.2322
      vertex -18.5 -28.2 16
      vertex -19.2322 -28.2 14.2322
    endloop
  endfacet
  facet normal -0.923888 0 0.382663
    outer loop
      vertex -18.5 -28.2 16
      vertex -19.2322 -32.3 14.2322
      vertex -18.5 -32.3 16
    endloop
  endfacet
  facet normal 0.382663 0 -0.923888
    outer loop
      vertex -22.7678 -19 17.7678
      vertex -21 -0.1 18.5
      vertex -21 -19 18.5
    endloop
  endfacet
  facet normal 0.382663 0 -0.923888
    outer loop
      vertex -21 -0.1 18.5
      vertex -22.7678 -19 17.7678
      vertex -22.7678 -0.1 17.7678
    endloop
  endfacet
  facet normal 0.382663 0 -0.923888
    outer loop
      vertex -22.7678 -32.3 17.7678
      vertex -21 -28.2 18.5
      vertex -21 -32.3 18.5
    endloop
  endfacet
  facet normal 0.382663 0 -0.923888
    outer loop
      vertex -21 -28.2 18.5
      vertex -22.7678 -32.3 17.7678
      vertex -22.7678 -28.2 17.7678
    endloop
  endfacet
  facet normal -0.382663 0 0.923888
    outer loop
      vertex -21 -0.1 13.5
      vertex -19.2322 -19 14.2322
      vertex -19.2322 -0.1 14.2322
    endloop
  endfacet
  facet normal -0.382663 0 0.923888
    outer loop
      vertex -19.2322 -19 14.2322
      vertex -21 -0.1 13.5
      vertex -21 -19 13.5
    endloop
  endfacet
  facet normal -0.382663 0 0.923888
    outer loop
      vertex -21 -28.2 13.5
      vertex -19.2322 -32.3 14.2322
      vertex -19.2322 -28.2 14.2322
    endloop
  endfacet
  facet normal -0.382663 0 0.923888
    outer loop
      vertex -19.2322 -32.3 14.2322
      vertex -21 -28.2 13.5
      vertex -21 -32.3 13.5
    endloop
  endfacet
  facet normal 0.382663 0 0.923888
    outer loop
      vertex -22.7678 -0.1 14.2322
      vertex -21 -19 13.5
      vertex -21 -0.1 13.5
    endloop
  endfacet
  facet normal 0.382663 0 0.923888
    outer loop
      vertex -21 -19 13.5
      vertex -22.7678 -0.1 14.2322
      vertex -22.7678 -19 14.2322
    endloop
  endfacet
  facet normal 0.382663 0 0.923888
    outer loop
      vertex -22.7678 -28.2 14.2322
      vertex -21 -32.3 13.5
      vertex -21 -28.2 13.5
    endloop
  endfacet
  facet normal 0.382663 0 0.923888
    outer loop
      vertex -21 -32.3 13.5
      vertex -22.7678 -28.2 14.2322
      vertex -22.7678 -32.3 14.2322
    endloop
  endfacet
  facet normal 0.994522 0 -0.104527
    outer loop
      vertex -22.4974 -15 4.78197
      vertex -23 -0.1 0
      vertex -22.4974 -0.1 4.78197
    endloop
  endfacet
  facet normal 0.994522 0 -0.104527
    outer loop
      vertex -23 -0.1 0
      vertex -22.4974 -15 4.78197
      vertex -23 -15 0
    endloop
  endfacet
  facet normal -0.866033 0 0.499988
    outer loop
      vertex 18.6074 -15 -13.5191
      vertex 21.0115 -0.1 -9.35494
      vertex 18.6074 -0.1 -13.5191
    endloop
  endfacet
  facet normal -0.866033 0 0.499988
    outer loop
      vertex 21.0115 -0.1 -9.35494
      vertex 18.6074 -15 -13.5191
      vertex 21.0115 -15 -9.35494
    endloop
  endfacet
  facet normal -0.951053 0 -0.309027
    outer loop
      vertex 22.4974 -15 4.78197
      vertex 21.0115 -0.1 9.35494
      vertex 22.4974 -0.1 4.78197
    endloop
  endfacet
  facet normal -0.951053 -0 -0.309027
    outer loop
      vertex 21.0115 -0.1 9.35494
      vertex 22.4974 -15 4.78197
      vertex 21.0115 -15 9.35494
    endloop
  endfacet
  facet normal -0.207911 0 -0.978148
    outer loop
      vertex 2.40415 -15 22.874
      vertex 7.10739 -0.1 21.8743
      vertex 7.10739 -15 21.8743
    endloop
  endfacet
  facet normal -0.207911 0 -0.978148
    outer loop
      vertex 7.10739 -0.1 21.8743
      vertex 2.40415 -15 22.874
      vertex 2.40415 -0.1 22.874
    endloop
  endfacet
  facet normal -0.743122 0 0.669156
    outer loop
      vertex 17.2739 -15 -15
      vertex 18.6074 -0.1 -13.5191
      vertex 17.2739 -0.1 -15
    endloop
  endfacet
  facet normal -0.743122 0 0.669156
    outer loop
      vertex 18.6074 -0.1 -13.5191
      vertex 17.2739 -15 -15
      vertex 18.6074 -15 -13.5191
    endloop
  endfacet
  facet normal -0.406734 0 -0.913547
    outer loop
      vertex 7.10739 -15 21.8743
      vertex 11.5 -0.1 19.9186
      vertex 11.5 -15 19.9186
    endloop
  endfacet
  facet normal -0.406734 0 -0.913547
    outer loop
      vertex 11.5 -0.1 19.9186
      vertex 7.10739 -15 21.8743
      vertex 7.10739 -0.1 21.8743
    endloop
  endfacet
  facet normal -0.994522 0 0.104527
    outer loop
      vertex 22.4974 -15 -4.78197
      vertex 23 -0.1 0
      vertex 22.4974 -0.1 -4.78197
    endloop
  endfacet
  facet normal -0.994522 0 0.104527
    outer loop
      vertex 23 -0.1 0
      vertex 22.4974 -15 -4.78197
      vertex 23 -15 0
    endloop
  endfacet
  facet normal -0.994522 0 -0.104527
    outer loop
      vertex 23 -15 0
      vertex 22.4974 -0.1 4.78197
      vertex 23 -0.1 0
    endloop
  endfacet
  facet normal -0.994522 -0 -0.104527
    outer loop
      vertex 22.4974 -0.1 4.78197
      vertex 23 -15 0
      vertex 22.4974 -15 4.78197
    endloop
  endfacet
  facet normal 0.207911 0 -0.978148
    outer loop
      vertex -7.10739 -15 21.8743
      vertex -2.40415 -0.1 22.874
      vertex -2.40415 -15 22.874
    endloop
  endfacet
  facet normal 0.207911 0 -0.978148
    outer loop
      vertex -2.40415 -0.1 22.874
      vertex -7.10739 -15 21.8743
      vertex -7.10739 -0.1 21.8743
    endloop
  endfacet
  facet normal 0 1 0
    outer loop
      vertex 1.95408 -15 7.29274
      vertex 2.40415 -15 22.874
      vertex 7.10739 -15 21.8743
    endloop
  endfacet
  facet normal 0 1 0
    outer loop
      vertex 2.40415 -15 22.874
      vertex 0 -15 7.55
      vertex -2.40415 -15 22.874
    endloop
  endfacet
  facet normal 0 1 0
    outer loop
      vertex 3.775 -15 6.53849
      vertex 7.10739 -15 21.8743
      vertex 11.5 -15 19.9186
    endloop
  endfacet
  facet normal 0 1 -0
    outer loop
      vertex -1.95408 -15 7.29274
      vertex -2.40415 -15 22.874
      vertex 0 -15 7.55
    endloop
  endfacet
  facet normal 0 1 0
    outer loop
      vertex 3.775 -15 6.53849
      vertex 11.5 -15 19.9186
      vertex 15.39 -15 17.0923
    endloop
  endfacet
  facet normal 0 1 0
    outer loop
      vertex -2.40415 -15 22.874
      vertex -1.95408 -15 7.29274
      vertex -7.10739 -15 21.8743
    endloop
  endfacet
  facet normal 0 1 0
    outer loop
      vertex 5.33866 -15 5.33866
      vertex 15.39 -15 17.0923
      vertex 18.6074 -15 13.5191
    endloop
  endfacet
  facet normal 0 1 -0
    outer loop
      vertex -3.775 -15 6.53849
      vertex -7.10739 -15 21.8743
      vertex -1.95408 -15 7.29274
    endloop
  endfacet
  facet normal 0 1 0
    outer loop
      vertex 6.53849 -15 3.775
      vertex 18.6074 -15 13.5191
      vertex 21.0115 -15 9.35494
    endloop
  endfacet
  facet normal 0 1 0
    outer loop
      vertex -7.10739 -15 21.8743
      vertex -3.775 -15 6.53849
      vertex -11.5 -15 19.9186
    endloop
  endfacet
  facet normal 0 1 0
    outer loop
      vertex -11.5 -15 19.9186
      vertex -3.775 -15 6.53849
      vertex -15.39 -15 17.0923
    endloop
  endfacet
  facet normal 0 1 0
    outer loop
      vertex 2.40415 -15 22.874
      vertex 1.95408 -15 7.29274
      vertex 0 -15 7.55
    endloop
  endfacet
  facet normal 0 1 0
    outer loop
      vertex 7.10739 -15 21.8743
      vertex 3.775 -15 6.53849
      vertex 1.95408 -15 7.29274
    endloop
  endfacet
  facet normal 0 1 0
    outer loop
      vertex 15.39 -15 17.0923
      vertex 5.33866 -15 5.33866
      vertex 3.775 -15 6.53849
    endloop
  endfacet
  facet normal 0 1 0
    outer loop
      vertex 7.29274 -15 1.95408
      vertex 21.0115 -15 9.35494
      vertex 22.4974 -15 4.78197
    endloop
  endfacet
  facet normal 0 1 0
    outer loop
      vertex 18.6074 -15 13.5191
      vertex 6.53849 -15 3.775
      vertex 5.33866 -15 5.33866
    endloop
  endfacet
  facet normal 0 1 0
    outer loop
      vertex 21.0115 -15 9.35494
      vertex 7.29274 -15 1.95408
      vertex 6.53849 -15 3.775
    endloop
  endfacet
  facet normal 0 1 0
    outer loop
      vertex 7.55 -15 0
      vertex 22.4974 -15 4.78197
      vertex 23 -15 0
    endloop
  endfacet
  facet normal 0 1 0
    outer loop
      vertex 22.4974 -15 4.78197
      vertex 7.55 -15 0
      vertex 7.29274 -15 1.95408
    endloop
  endfacet
  facet normal 0 1 -0
    outer loop
      vertex 22.4974 -15 -4.78197
      vertex 7.55 -15 0
      vertex 23 -15 0
    endloop
  endfacet
  facet normal 0 1 0
    outer loop
      vertex 7.55 -15 0
      vertex 22.4974 -15 -4.78197
      vertex 7.29274 -15 -1.95408
    endloop
  endfacet
  facet normal 0 1 -0
    outer loop
      vertex 21.0115 -15 -9.35494
      vertex 7.29274 -15 -1.95408
      vertex 22.4974 -15 -4.78197
    endloop
  endfacet
  facet normal 0 1 0
    outer loop
      vertex 7.29274 -15 -1.95408
      vertex 21.0115 -15 -9.35494
      vertex 6.53849 -15 -3.775
    endloop
  endfacet
  facet normal 0 1 -0
    outer loop
      vertex 18.6074 -15 -13.5191
      vertex 6.53849 -15 -3.775
      vertex 21.0115 -15 -9.35494
    endloop
  endfacet
  facet normal 0 1 -0
    outer loop
      vertex 17.2739 -15 -15
      vertex 6.53849 -15 -3.775
      vertex 18.6074 -15 -13.5191
    endloop
  endfacet
  facet normal 0 1 0
    outer loop
      vertex 6.53849 -15 -3.775
      vertex 17.2739 -15 -15
      vertex 5.33866 -15 -5.33866
    endloop
  endfacet
  facet normal 0 1 0
    outer loop
      vertex 5.33866 -15 -5.33866
      vertex 17.2739 -15 -15
      vertex 3.775 -15 -6.53849
    endloop
  endfacet
  facet normal 0 1 -0
    outer loop
      vertex -5.33866 -15 5.33866
      vertex -15.39 -15 17.0923
      vertex -3.775 -15 6.53849
    endloop
  endfacet
  facet normal 0 1 0
    outer loop
      vertex -15.39 -15 17.0923
      vertex -5.33866 -15 5.33866
      vertex -18.6074 -15 13.5191
    endloop
  endfacet
  facet normal 0 1 -0
    outer loop
      vertex -6.53849 -15 3.775
      vertex -18.6074 -15 13.5191
      vertex -5.33866 -15 5.33866
    endloop
  endfacet
  facet normal 0 1 0
    outer loop
      vertex -18.6074 -15 13.5191
      vertex -6.53849 -15 3.775
      vertex -21.0115 -15 9.35494
    endloop
  endfacet
  facet normal 0 1 -0
    outer loop
      vertex -7.29274 -15 1.95408
      vertex -21.0115 -15 9.35494
      vertex -6.53849 -15 3.775
    endloop
  endfacet
  facet normal 0 1 0
    outer loop
      vertex -21.0115 -15 9.35494
      vertex -7.29274 -15 1.95408
      vertex -22.4974 -15 4.78197
    endloop
  endfacet
  facet normal 0 1 -0
    outer loop
      vertex -7.55 -15 0
      vertex -22.4974 -15 4.78197
      vertex -7.29274 -15 1.95408
    endloop
  endfacet
  facet normal 0 1 0
    outer loop
      vertex -7.55 -15 0
      vertex -23 -15 0
      vertex -22.4974 -15 4.78197
    endloop
  endfacet
  facet normal 0 1 0
    outer loop
      vertex -22.4974 -15 -4.78197
      vertex -7.55 -15 0
      vertex -7.29274 -15 -1.95408
    endloop
  endfacet
  facet normal 0 1 0
    outer loop
      vertex -21.0115 -15 -9.35494
      vertex -7.29274 -15 -1.95408
      vertex -6.53849 -15 -3.775
    endloop
  endfacet
  facet normal 0 1 0
    outer loop
      vertex -7.55 -15 0
      vertex -22.4974 -15 -4.78197
      vertex -23 -15 0
    endloop
  endfacet
  facet normal 0 1 0
    outer loop
      vertex -17.2739 -15 -15
      vertex -6.53849 -15 -3.775
      vertex -5.33866 -15 -5.33866
    endloop
  endfacet
  facet normal 0 1 0
    outer loop
      vertex -17.2739 -15 -15
      vertex -5.33866 -15 -5.33866
      vertex -3.775 -15 -6.53849
    endloop
  endfacet
  facet normal 0 1 0
    outer loop
      vertex -17.2739 -15 -15
      vertex -3.775 -15 -6.53849
      vertex -1.95408 -15 -7.29274
    endloop
  endfacet
  facet normal 0 1 0
    outer loop
      vertex -17.2739 -15 -15
      vertex -1.95408 -15 -7.29274
      vertex 0 -15 -7.55
    endloop
  endfacet
  facet normal 0 1 0
    outer loop
      vertex -7.29274 -15 -1.95408
      vertex -21.0115 -15 -9.35494
      vertex -22.4974 -15 -4.78197
    endloop
  endfacet
  facet normal 0 1 0
    outer loop
      vertex 3.775 -15 -6.53849
      vertex 17.2739 -15 -15
      vertex 1.95408 -15 -7.29274
    endloop
  endfacet
  facet normal 0 1 0
    outer loop
      vertex 1.95408 -15 -7.29274
      vertex 17.2739 -15 -15
      vertex 0 -15 -7.55
    endloop
  endfacet
  facet normal 0 1 0
    outer loop
      vertex -17.2739 -15 -15
      vertex 0 -15 -7.55
      vertex 17.2739 -15 -15
    endloop
  endfacet
  facet normal 0 1 0
    outer loop
      vertex -6.53849 -15 -3.775
      vertex -17.2739 -15 -15
      vertex -18.6074 -15 -13.5191
    endloop
  endfacet
  facet normal 0 1 0
    outer loop
      vertex -6.53849 -15 -3.775
      vertex -18.6074 -15 -13.5191
      vertex -21.0115 -15 -9.35494
    endloop
  endfacet
  facet normal -0.866033 0 -0.499988
    outer loop
      vertex 21.0115 -15 9.35494
      vertex 18.6074 -0.1 13.5191
      vertex 21.0115 -0.1 9.35494
    endloop
  endfacet
  facet normal -0.866033 -0 -0.499988
    outer loop
      vertex 18.6074 -0.1 13.5191
      vertex 21.0115 -15 9.35494
      vertex 18.6074 -15 13.5191
    endloop
  endfacet
  facet normal 0.587792 0 -0.809012
    outer loop
      vertex -15.39 -15 17.0923
      vertex -11.5 -0.1 19.9186
      vertex -11.5 -15 19.9186
    endloop
  endfacet
  facet normal 0.587792 0 -0.809012
    outer loop
      vertex -11.5 -0.1 19.9186
      vertex -15.39 -15 17.0923
      vertex -15.39 -0.1 17.0923
    endloop
  endfacet
  facet normal -0.743137 0 -0.669139
    outer loop
      vertex 18.6074 -15 13.5191
      vertex 15.39 -0.1 17.0923
      vertex 18.6074 -0.1 13.5191
    endloop
  endfacet
  facet normal -0.743137 -0 -0.669139
    outer loop
      vertex 15.39 -0.1 17.0923
      vertex 18.6074 -15 13.5191
      vertex 15.39 -15 17.0923
    endloop
  endfacet
  facet normal 0.951053 0 -0.309027
    outer loop
      vertex -21.0115 -15 9.35494
      vertex -22.4974 -0.1 4.78197
      vertex -21.0115 -0.1 9.35494
    endloop
  endfacet
  facet normal 0.951053 0 -0.309027
    outer loop
      vertex -22.4974 -0.1 4.78197
      vertex -21.0115 -15 9.35494
      vertex -22.4974 -15 4.78197
    endloop
  endfacet
  facet normal 0.743137 0 -0.669139
    outer loop
      vertex -15.39 -15 17.0923
      vertex -18.6074 -0.1 13.5191
      vertex -15.39 -0.1 17.0923
    endloop
  endfacet
  facet normal 0.743137 0 -0.669139
    outer loop
      vertex -18.6074 -0.1 13.5191
      vertex -15.39 -15 17.0923
      vertex -18.6074 -15 13.5191
    endloop
  endfacet
  facet normal -0.587792 0 -0.809012
    outer loop
      vertex 11.5 -15 19.9186
      vertex 15.39 -0.1 17.0923
      vertex 15.39 -15 17.0923
    endloop
  endfacet
  facet normal -0.587792 0 -0.809012
    outer loop
      vertex 15.39 -0.1 17.0923
      vertex 11.5 -15 19.9186
      vertex 11.5 -0.1 19.9186
    endloop
  endfacet
  facet normal 0.406734 0 -0.913547
    outer loop
      vertex -11.5 -15 19.9186
      vertex -7.10739 -0.1 21.8743
      vertex -7.10739 -15 21.8743
    endloop
  endfacet
  facet normal 0.406734 0 -0.913547
    outer loop
      vertex -7.10739 -0.1 21.8743
      vertex -11.5 -15 19.9186
      vertex -11.5 -0.1 19.9186
    endloop
  endfacet
  facet normal 0.951053 -0 0.309027
    outer loop
      vertex -22.4974 -15 -4.78197
      vertex -21.0115 -0.1 -9.35494
      vertex -22.4974 -0.1 -4.78197
    endloop
  endfacet
  facet normal 0.951053 0 0.309027
    outer loop
      vertex -21.0115 -0.1 -9.35494
      vertex -22.4974 -15 -4.78197
      vertex -21.0115 -15 -9.35494
    endloop
  endfacet
  facet normal 0.866033 -0 0.499988
    outer loop
      vertex -21.0115 -15 -9.35494
      vertex -18.6074 -0.1 -13.5191
      vertex -21.0115 -0.1 -9.35494
    endloop
  endfacet
  facet normal 0.866033 0 0.499988
    outer loop
      vertex -18.6074 -0.1 -13.5191
      vertex -21.0115 -15 -9.35494
      vertex -18.6074 -15 -13.5191
    endloop
  endfacet
  facet normal 0.743122 -0 0.669156
    outer loop
      vertex -18.6074 -15 -13.5191
      vertex -17.2739 -0.1 -15
      vertex -18.6074 -0.1 -13.5191
    endloop
  endfacet
  facet normal 0.743122 0 0.669156
    outer loop
      vertex -17.2739 -0.1 -15
      vertex -18.6074 -15 -13.5191
      vertex -17.2739 -15 -15
    endloop
  endfacet
  facet normal -0.951053 0 0.309027
    outer loop
      vertex 21.0115 -15 -9.35494
      vertex 22.4974 -0.1 -4.78197
      vertex 21.0115 -0.1 -9.35494
    endloop
  endfacet
  facet normal -0.951053 0 0.309027
    outer loop
      vertex 22.4974 -0.1 -4.78197
      vertex 21.0115 -15 -9.35494
      vertex 22.4974 -15 -4.78197
    endloop
  endfacet
  facet normal 0.994522 -0 0.104527
    outer loop
      vertex -23 -15 0
      vertex -22.4974 -0.1 -4.78197
      vertex -23 -0.1 0
    endloop
  endfacet
  facet normal 0.994522 0 0.104527
    outer loop
      vertex -22.4974 -0.1 -4.78197
      vertex -23 -15 0
      vertex -22.4974 -15 -4.78197
    endloop
  endfacet
  facet normal 0 0 -1
    outer loop
      vertex -2.40415 -15 22.874
      vertex 2.40415 -0.1 22.874
      vertex 2.40415 -15 22.874
    endloop
  endfacet
  facet normal -0 0 -1
    outer loop
      vertex 2.40415 -0.1 22.874
      vertex -2.40415 -15 22.874
      vertex -2.40415 -0.1 22.874
    endloop
  endfacet
  facet normal 0.866033 0 -0.499988
    outer loop
      vertex -18.6074 -15 13.5191
      vertex -21.0115 -0.1 9.35494
      vertex -18.6074 -0.1 13.5191
    endloop
  endfacet
  facet normal 0.866033 0 -0.499988
    outer loop
      vertex -21.0115 -0.1 9.35494
      vertex -18.6074 -15 13.5191
      vertex -21.0115 -15 9.35494
    endloop
  endfacet
  facet normal 0.923879 -0 0.382684
    outer loop
      vertex 6.53849 -15 3.775
      vertex 7.29274 -0.1 1.95408
      vertex 6.53849 -0.1 3.775
    endloop
  endfacet
  facet normal 0.923879 0 0.382684
    outer loop
      vertex 7.29274 -0.1 1.95408
      vertex 6.53849 -15 3.775
      vertex 7.29274 -15 1.95408
    endloop
  endfacet
  facet normal 0.382684 0 -0.923879
    outer loop
      vertex 1.95408 -15 -7.29274
      vertex 3.775 -0.1 -6.53849
      vertex 3.775 -15 -6.53849
    endloop
  endfacet
  facet normal 0.382684 0 -0.923879
    outer loop
      vertex 3.775 -0.1 -6.53849
      vertex 1.95408 -15 -7.29274
      vertex 1.95408 -0.1 -7.29274
    endloop
  endfacet
  facet normal -0.382684 0 0.923879
    outer loop
      vertex -3.775 -0.1 6.53849
      vertex -1.95408 -15 7.29274
      vertex -1.95408 -0.1 7.29274
    endloop
  endfacet
  facet normal -0.382684 0 0.923879
    outer loop
      vertex -1.95408 -15 7.29274
      vertex -3.775 -0.1 6.53849
      vertex -3.775 -15 6.53849
    endloop
  endfacet
  facet normal 0.991445 0 -0.130526
    outer loop
      vertex 7.55 -15 0
      vertex 7.29274 -0.1 -1.95408
      vertex 7.55 -0.1 0
    endloop
  endfacet
  facet normal 0.991445 0 -0.130526
    outer loop
      vertex 7.29274 -0.1 -1.95408
      vertex 7.55 -15 0
      vertex 7.29274 -15 -1.95408
    endloop
  endfacet
  facet normal -0.130526 0 0.991445
    outer loop
      vertex -1.95408 -0.1 7.29274
      vertex 0 -15 7.55
      vertex 0 -0.1 7.55
    endloop
  endfacet
  facet normal -0.130526 0 0.991445
    outer loop
      vertex 0 -15 7.55
      vertex -1.95408 -0.1 7.29274
      vertex -1.95408 -15 7.29274
    endloop
  endfacet
  facet normal 0.991445 -0 0.130526
    outer loop
      vertex 7.29274 -15 1.95408
      vertex 7.55 -0.1 0
      vertex 7.29274 -0.1 1.95408
    endloop
  endfacet
  facet normal 0.991445 0 0.130526
    outer loop
      vertex 7.55 -0.1 0
      vertex 7.29274 -15 1.95408
      vertex 7.55 -15 0
    endloop
  endfacet
  facet normal -0.793355 0 0.608759
    outer loop
      vertex -6.53849 -15 3.775
      vertex -5.33866 -0.1 5.33866
      vertex -6.53849 -0.1 3.775
    endloop
  endfacet
  facet normal -0.793355 0 0.608759
    outer loop
      vertex -5.33866 -0.1 5.33866
      vertex -6.53849 -15 3.775
      vertex -5.33866 -15 5.33866
    endloop
  endfacet
  facet normal -0.608759 0 -0.793355
    outer loop
      vertex -5.33866 -15 -5.33866
      vertex -3.775 -0.1 -6.53849
      vertex -3.775 -15 -6.53849
    endloop
  endfacet
  facet normal -0.608759 0 -0.793355
    outer loop
      vertex -3.775 -0.1 -6.53849
      vertex -5.33866 -15 -5.33866
      vertex -5.33866 -0.1 -5.33866
    endloop
  endfacet
  facet normal 0.793355 0 -0.608759
    outer loop
      vertex 6.53849 -15 -3.775
      vertex 5.33866 -0.1 -5.33866
      vertex 6.53849 -0.1 -3.775
    endloop
  endfacet
  facet normal 0.793355 0 -0.608759
    outer loop
      vertex 5.33866 -0.1 -5.33866
      vertex 6.53849 -15 -3.775
      vertex 5.33866 -15 -5.33866
    endloop
  endfacet
  facet normal 0.608759 0 0.793355
    outer loop
      vertex 3.775 -0.1 6.53849
      vertex 5.33866 -15 5.33866
      vertex 5.33866 -0.1 5.33866
    endloop
  endfacet
  facet normal 0.608759 0 0.793355
    outer loop
      vertex 5.33866 -15 5.33866
      vertex 3.775 -0.1 6.53849
      vertex 3.775 -15 6.53849
    endloop
  endfacet
  facet normal -0.923879 0 -0.382684
    outer loop
      vertex -6.53849 -15 -3.775
      vertex -7.29274 -0.1 -1.95408
      vertex -6.53849 -0.1 -3.775
    endloop
  endfacet
  facet normal -0.923879 -0 -0.382684
    outer loop
      vertex -7.29274 -0.1 -1.95408
      vertex -6.53849 -15 -3.775
      vertex -7.29274 -15 -1.95408
    endloop
  endfacet
  facet normal -0.382684 0 -0.923879
    outer loop
      vertex -3.775 -15 -6.53849
      vertex -1.95408 -0.1 -7.29274
      vertex -1.95408 -15 -7.29274
    endloop
  endfacet
  facet normal -0.382684 0 -0.923879
    outer loop
      vertex -1.95408 -0.1 -7.29274
      vertex -3.775 -15 -6.53849
      vertex -3.775 -0.1 -6.53849
    endloop
  endfacet
  facet normal -0.923879 0 0.382684
    outer loop
      vertex -7.29274 -15 1.95408
      vertex -6.53849 -0.1 3.775
      vertex -7.29274 -0.1 1.95408
    endloop
  endfacet
  facet normal -0.923879 0 0.382684
    outer loop
      vertex -6.53849 -0.1 3.775
      vertex -7.29274 -15 1.95408
      vertex -6.53849 -15 3.775
    endloop
  endfacet
  facet normal 0.793355 -0 0.608759
    outer loop
      vertex 5.33866 -15 5.33866
      vertex 6.53849 -0.1 3.775
      vertex 5.33866 -0.1 5.33866
    endloop
  endfacet
  facet normal 0.793355 0 0.608759
    outer loop
      vertex 6.53849 -0.1 3.775
      vertex 5.33866 -15 5.33866
      vertex 6.53849 -15 3.775
    endloop
  endfacet
  facet normal 0.130526 0 -0.991445
    outer loop
      vertex 0 -15 -7.55
      vertex 1.95408 -0.1 -7.29274
      vertex 1.95408 -15 -7.29274
    endloop
  endfacet
  facet normal 0.130526 0 -0.991445
    outer loop
      vertex 1.95408 -0.1 -7.29274
      vertex 0 -15 -7.55
      vertex 0 -0.1 -7.55
    endloop
  endfacet
  facet normal -0.991445 0 0.130526
    outer loop
      vertex -7.55 -15 0
      vertex -7.29274 -0.1 1.95408
      vertex -7.55 -0.1 0
    endloop
  endfacet
  facet normal -0.991445 0 0.130526
    outer loop
      vertex -7.29274 -0.1 1.95408
      vertex -7.55 -15 0
      vertex -7.29274 -15 1.95408
    endloop
  endfacet
  facet normal -0.608759 0 0.793355
    outer loop
      vertex -5.33866 -0.1 5.33866
      vertex -3.775 -15 6.53849
      vertex -3.775 -0.1 6.53849
    endloop
  endfacet
  facet normal -0.608759 0 0.793355
    outer loop
      vertex -3.775 -15 6.53849
      vertex -5.33866 -0.1 5.33866
      vertex -5.33866 -15 5.33866
    endloop
  endfacet
  facet normal 0.382684 0 0.923879
    outer loop
      vertex 1.95408 -0.1 7.29274
      vertex 3.775 -15 6.53849
      vertex 3.775 -0.1 6.53849
    endloop
  endfacet
  facet normal 0.382684 0 0.923879
    outer loop
      vertex 3.775 -15 6.53849
      vertex 1.95408 -0.1 7.29274
      vertex 1.95408 -15 7.29274
    endloop
  endfacet
  facet normal 0.608759 0 -0.793355
    outer loop
      vertex 3.775 -15 -6.53849
      vertex 5.33866 -0.1 -5.33866
      vertex 5.33866 -15 -5.33866
    endloop
  endfacet
  facet normal 0.608759 0 -0.793355
    outer loop
      vertex 5.33866 -0.1 -5.33866
      vertex 3.775 -15 -6.53849
      vertex 3.775 -0.1 -6.53849
    endloop
  endfacet
  facet normal 0.923879 0 -0.382684
    outer loop
      vertex 7.29274 -15 -1.95408
      vertex 6.53849 -0.1 -3.775
      vertex 7.29274 -0.1 -1.95408
    endloop
  endfacet
  facet normal 0.923879 0 -0.382684
    outer loop
      vertex 6.53849 -0.1 -3.775
      vertex 7.29274 -15 -1.95408
      vertex 6.53849 -15 -3.775
    endloop
  endfacet
  facet normal -0.130526 0 -0.991445
    outer loop
      vertex -1.95408 -15 -7.29274
      vertex 0 -0.1 -7.55
      vertex 0 -15 -7.55
    endloop
  endfacet
  facet normal -0.130526 0 -0.991445
    outer loop
      vertex 0 -0.1 -7.55
      vertex -1.95408 -15 -7.29274
      vertex -1.95408 -0.1 -7.29274
    endloop
  endfacet
  facet normal 0.130526 0 0.991445
    outer loop
      vertex 0 -0.1 7.55
      vertex 1.95408 -15 7.29274
      vertex 1.95408 -0.1 7.29274
    endloop
  endfacet
  facet normal 0.130526 0 0.991445
    outer loop
      vertex 1.95408 -15 7.29274
      vertex 0 -0.1 7.55
      vertex 0 -15 7.55
    endloop
  endfacet
  facet normal -0.991445 0 -0.130526
    outer loop
      vertex -7.29274 -15 -1.95408
      vertex -7.55 -0.1 0
      vertex -7.29274 -0.1 -1.95408
    endloop
  endfacet
  facet normal -0.991445 -0 -0.130526
    outer loop
      vertex -7.55 -0.1 0
      vertex -7.29274 -15 -1.95408
      vertex -7.55 -15 0
    endloop
  endfacet
  facet normal -0.793355 0 -0.608759
    outer loop
      vertex -5.33866 -15 -5.33866
      vertex -6.53849 -0.1 -3.775
      vertex -5.33866 -0.1 -5.33866
    endloop
  endfacet
  facet normal -0.793355 -0 -0.608759
    outer loop
      vertex -6.53849 -0.1 -3.775
      vertex -5.33866 -15 -5.33866
      vertex -6.53849 -15 -3.775
    endloop
  endfacet
  facet normal 0 1 -0
    outer loop
      vertex -19.2322 -28.2 17.7678
      vertex -25 -28.2 25
      vertex 19.2322 -28.2 17.7678
    endloop
  endfacet
  facet normal 0 1 0
    outer loop
      vertex -25 -28.2 25
      vertex -19.2322 -28.2 17.7678
      vertex -21 -28.2 18.5
    endloop
  endfacet
  facet normal 0 1 -0
    outer loop
      vertex 18.5 -28.2 16
      vertex -19.2322 -28.2 17.7678
      vertex 19.2322 -28.2 17.7678
    endloop
  endfacet
  facet normal 0 1 0
    outer loop
      vertex 18.5 -28.2 16
      vertex -18.5 -28.2 16
      vertex -19.2322 -28.2 17.7678
    endloop
  endfacet
  facet normal 0 1 0
    outer loop
      vertex 19.2322 -28.2 14.2322
      vertex -18.5 -28.2 16
      vertex 18.5 -28.2 16
    endloop
  endfacet
  facet normal 0 1 0
    outer loop
      vertex 19.2322 -28.2 14.2322
      vertex -19.2322 -28.2 14.2322
      vertex -18.5 -28.2 16
    endloop
  endfacet
  facet normal 0 1 0
    outer loop
      vertex 25 -28.2 -11
      vertex 19.2322 -28.2 14.2322
      vertex 21 -28.2 13.5
    endloop
  endfacet
  facet normal 0 1 0
    outer loop
      vertex 19.2322 -28.2 14.2322
      vertex 25 -28.2 -11
      vertex -19.2322 -28.2 14.2322
    endloop
  endfacet
  facet normal 0 1 0
    outer loop
      vertex 19.2322 -28.2 17.7678
      vertex 25 -28.2 25
      vertex 21 -28.2 18.5
    endloop
  endfacet
  facet normal 0 1 0
    outer loop
      vertex 25 -28.2 25
      vertex 22.7678 -28.2 17.7678
      vertex 21 -28.2 18.5
    endloop
  endfacet
  facet normal 0 1 0
    outer loop
      vertex 25 -28.2 25
      vertex 23.5 -28.2 16
      vertex 22.7678 -28.2 17.7678
    endloop
  endfacet
  facet normal 0 1 0
    outer loop
      vertex -25 -28.2 -11
      vertex -19.2322 -28.2 14.2322
      vertex 25 -28.2 -11
    endloop
  endfacet
  facet normal 0 1 0
    outer loop
      vertex 22.7678 -28.2 14.2322
      vertex 25 -28.2 -11
      vertex 21 -28.2 13.5
    endloop
  endfacet
  facet normal 0 1 0
    outer loop
      vertex 23.5 -28.2 16
      vertex 25 -28.2 -11
      vertex 22.7678 -28.2 14.2322
    endloop
  endfacet
  facet normal 0 1 -0
    outer loop
      vertex 25 -28.2 -11
      vertex 23.5 -28.2 16
      vertex 25 -28.2 25
    endloop
  endfacet
  facet normal 0 1 0
    outer loop
      vertex 25 -28.2 25
      vertex 19.2322 -28.2 17.7678
      vertex -25 -28.2 25
    endloop
  endfacet
  facet normal 0 1 -0
    outer loop
      vertex -22.7678 -28.2 17.7678
      vertex -25 -28.2 25
      vertex -21 -28.2 18.5
    endloop
  endfacet
  facet normal 0 1 -0
    outer loop
      vertex -23.5 -28.2 16
      vertex -25 -28.2 25
      vertex -22.7678 -28.2 17.7678
    endloop
  endfacet
  facet normal 0 1 0
    outer loop
      vertex -19.2322 -28.2 14.2322
      vertex -25 -28.2 -11
      vertex -21 -28.2 13.5
    endloop
  endfacet
  facet normal 0 1 0
    outer loop
      vertex -23.5 -28.2 16
      vertex -25 -28.2 -11
      vertex -25 -28.2 25
    endloop
  endfacet
  facet normal 0 1 0
    outer loop
      vertex -22.7678 -28.2 14.2322
      vertex -25 -28.2 -11
      vertex -23.5 -28.2 16
    endloop
  endfacet
  facet normal 0 1 0
    outer loop
      vertex -21 -28.2 13.5
      vertex -25 -28.2 -11
      vertex -22.7678 -28.2 14.2322
    endloop
  endfacet
  facet normal 0 -1 0
    outer loop
      vertex 19.2322 -19 17.7678
      vertex 25 -19 25
      vertex -19.2322 -19 17.7678
    endloop
  endfacet
  facet normal 0 -1 0
    outer loop
      vertex 25 -19 25
      vertex 19.2322 -19 17.7678
      vertex 21 -19 18.5
    endloop
  endfacet
  facet normal 0 -1 0
    outer loop
      vertex -18.5 -19 16
      vertex 19.2322 -19 17.7678
      vertex -19.2322 -19 17.7678
    endloop
  endfacet
  facet normal 0 -1 0
    outer loop
      vertex -18.5 -19 16
      vertex 18.5 -19 16
      vertex 19.2322 -19 17.7678
    endloop
  endfacet
  facet normal 0 -1 0
    outer loop
      vertex -19.2322 -19 14.2322
      vertex 18.5 -19 16
      vertex -18.5 -19 16
    endloop
  endfacet
  facet normal 0 -1 0
    outer loop
      vertex -19.2322 -19 14.2322
      vertex 19.2322 -19 14.2322
      vertex 18.5 -19 16
    endloop
  endfacet
  facet normal 0 -1 0
    outer loop
      vertex -25 -19 -11
      vertex -19.2322 -19 14.2322
      vertex -21 -19 13.5
    endloop
  endfacet
  facet normal 0 -1 -0
    outer loop
      vertex -19.2322 -19 14.2322
      vertex -25 -19 -11
      vertex 19.2322 -19 14.2322
    endloop
  endfacet
  facet normal 0 -1 0
    outer loop
      vertex -19.2322 -19 17.7678
      vertex -25 -19 25
      vertex -21 -19 18.5
    endloop
  endfacet
  facet normal 0 -1 0
    outer loop
      vertex -25 -19 25
      vertex -22.7678 -19 17.7678
      vertex -21 -19 18.5
    endloop
  endfacet
  facet normal 0 -1 0
    outer loop
      vertex -25 -19 25
      vertex -23.5 -19 16
      vertex -22.7678 -19 17.7678
    endloop
  endfacet
  facet normal 0 -1 0
    outer loop
      vertex 25 -19 -11
      vertex 19.2322 -19 14.2322
      vertex -25 -19 -11
    endloop
  endfacet
  facet normal 0 -1 -0
    outer loop
      vertex -22.7678 -19 14.2322
      vertex -25 -19 -11
      vertex -21 -19 13.5
    endloop
  endfacet
  facet normal 0 -1 -0
    outer loop
      vertex -23.5 -19 16
      vertex -25 -19 -11
      vertex -22.7678 -19 14.2322
    endloop
  endfacet
  facet normal 0 -1 0
    outer loop
      vertex -25 -19 -11
      vertex -23.5 -19 16
      vertex -25 -19 25
    endloop
  endfacet
  facet normal 0 -1 0
    outer loop
      vertex -25 -19 25
      vertex -19.2322 -19 17.7678
      vertex 25 -19 25
    endloop
  endfacet
  facet normal 0 -1 0
    outer loop
      vertex 22.7678 -19 17.7678
      vertex 25 -19 25
      vertex 21 -19 18.5
    endloop
  endfacet
  facet normal 0 -1 0
    outer loop
      vertex 23.5 -19 16
      vertex 25 -19 25
      vertex 22.7678 -19 17.7678
    endloop
  endfacet
  facet normal 0 -1 0
    outer loop
      vertex 19.2322 -19 14.2322
      vertex 25 -19 -11
      vertex 21 -19 13.5
    endloop
  endfacet
  facet normal 0 -1 0
    outer loop
      vertex 23.5 -19 16
      vertex 25 -19 -11
      vertex 25 -19 25
    endloop
  endfacet
  facet normal 0 -1 0
    outer loop
      vertex 22.7678 -19 14.2322
      vertex 25 -19 -11
      vertex 23.5 -19 16
    endloop
  endfacet
  facet normal 0 -1 0
    outer loop
      vertex 21 -19 13.5
      vertex 25 -19 -11
      vertex 22.7678 -19 14.2322
    endloop
  endfacet
  facet normal -0 0 1
    outer loop
      vertex -25 -19 -11
      vertex 25 -28.2 -11
      vertex 25 -19 -11
    endloop
  endfacet
  facet normal 0 0 1
    outer loop
      vertex 25 -28.2 -11
      vertex -25 -19 -11
      vertex -25 -28.2 -11
    endloop
  endfacet
endsolid OpenSCAD_Model
